<?xml version="1.0" encoding="utf-8"?>
<!-- Generator: Adobe Illustrator 23.1.0, SVG Export Plug-In . SVG Version: 6.00 Build 0)  -->
<svg version="1.1" id="Capa_1" xmlns="http://www.w3.org/2000/svg" xmlns:xlink="http://www.w3.org/1999/xlink" x="0px" y="0px"
	 viewBox="0 0 77 40" style="enable-background:new 0 0 77 40;" xml:space="preserve">
<style type="text/css">
	.st0{fill:#C8BBA7;}
	.st1{fill:none;}
	.st2{fill:#C68C32;}
	.st3{font-family:'Ravie';}
	.st4{font-size:10px;}
	.st5{fill:#FFFFFF;}
	.st6{font-size:6px;}
</style>
<polygon class="st0" points="5.2,31.3 5.7,32.3 6.8,32.4 6,33.2 6.2,34.3 5.2,33.8 4.2,34.3 4.4,33.2 3.6,32.4 4.7,32.3 "/>
<polygon class="st0" points="72.5,23.8 73.1,25 74.4,25.2 73.4,26.1 73.6,27.4 72.5,26.8 71.3,27.4 71.6,26.1 70.6,25.2 71.9,25 "/>
<polygon class="st0" points="12.9,1.7 13.5,2.8 14.8,3 13.8,3.9 14,5.2 12.9,4.6 11.7,5.2 12,3.9 11,3 12.3,2.8 "/>
<rect x="3.1" y="10.7" class="st1" width="77.1" height="11.4"/>
<text transform="matrix(1 0 0 1 3.1003 18.6996)"><tspan x="0" y="0" class="st2 st3 st4">UROB</tspan><tspan x="35.4" y="0" class="st5 st3 st4">OROS</tspan></text>
<rect x="6.8" y="23.8" class="st1" width="60.7" height="6.5"/>
<text transform="matrix(1 0 0 1 6.7797 28.5744)"><tspan x="0" y="0" class="st5 st3 st6">ARTE Y</tspan><tspan x="30.2" y="0" class="st3 st6"> </tspan><tspan x="32.6" y="0" class="st2 st3 st6">DISEÑO</tspan></text>
<polygon class="st0" points="33,3.7 33.5,4.7 34.6,4.8 33.8,5.6 34,6.7 33,6.2 32,6.7 32.2,5.6 31.4,4.8 32.5,4.7 "/>
<polygon class="st0" points="62,2.2 62.5,3.2 63.6,3.3 62.8,4.1 63,5.2 62,4.7 61,5.2 61.2,4.1 60.4,3.3 61.5,3.2 "/>
<polygon class="st0" points="63.6,32.8 64.1,33.8 65.2,33.9 64.4,34.7 64.6,35.8 63.6,35.3 62.6,35.8 62.8,34.7 62,33.9 63.1,33.8 
	"/>
<polygon class="st0" points="35.5,34.3 36,35.3 37.1,35.4 36.3,36.2 36.5,37.3 35.5,36.8 34.5,37.3 34.7,36.2 33.9,35.4 35,35.3 "/>
<polygon class="st0" points="49.3,4.3 49.8,5.3 50.9,5.4 50.1,6.2 50.3,7.3 49.3,6.8 48.3,7.3 48.5,6.2 47.7,5.4 48.8,5.3 "/>
<polygon class="st0" points="53.4,20 53.9,21 55,21.1 54.2,21.9 54.4,23 53.4,22.5 52.4,23 52.6,21.9 51.8,21.1 52.9,21 "/>
<polygon class="st0" points="20.6,30.7 21.1,31.7 22.2,31.8 21.4,32.6 21.6,33.7 20.6,33.2 19.6,33.7 19.8,32.6 19,31.8 20.1,31.7 
	"/>
<polygon class="st0" points="22.2,19.2 22.7,20.2 23.8,20.3 23,21.1 23.2,22.2 22.2,21.7 21.2,22.2 21.4,21.1 20.6,20.3 21.7,20.2 
	"/>
<polygon class="st0" points="47.7,31.3 48.2,32.3 49.3,32.4 48.5,33.2 48.7,34.3 47.7,33.8 46.7,34.3 46.9,33.2 46.1,32.4 
	47.2,32.3 "/>
<polygon class="st0" points="24.3,6.7 24.8,7.7 25.9,7.8 25.1,8.6 25.3,9.7 24.3,9.2 23.3,9.7 23.5,8.6 22.7,7.8 23.8,7.7 "/>
<polygon class="st0" points="38.5,20 39,21 40.1,21.1 39.3,21.9 39.5,23 38.5,22.5 37.5,23 37.7,21.9 36.9,21.1 38,21 "/>
<polygon class="st0" points="3.6,6.1 4.1,7.1 5.2,7.2 4.4,8 4.6,9.1 3.6,8.6 2.6,9.1 2.8,8 2,7.2 3.1,7.1 "/>
<polygon class="st0" points="72.8,5.8 73.3,6.8 74.4,6.9 73.6,7.7 73.8,8.8 72.8,8.3 71.8,8.8 72,7.7 71.2,6.9 72.3,6.8 "/>
<polygon class="st0" points="43.2,2.8 43.7,3.8 44.8,3.9 44,4.7 44.2,5.8 43.2,5.3 42.2,5.8 42.4,4.7 41.6,3.9 42.7,3.8 "/>
</svg>
