<?xml version="1.0" encoding="utf-8"?>
<!-- Generator: Adobe Illustrator 23.1.0, SVG Export Plug-In . SVG Version: 6.00 Build 0)  -->
<svg version="1.1" id="Capa_1" xmlns="http://www.w3.org/2000/svg" xmlns:xlink="http://www.w3.org/1999/xlink" x="0px" y="0px"
	 viewBox="0 0 291.2 284.6" style="enable-background:new 0 0 291.2 284.6;" xml:space="preserve">
<style type="text/css">
	.st0{fill:#FFFFFF;}
</style>
<title>icono sss</title>
<path class="st0" d="M67.1,52.9c-0.4-0.4-1-0.6-1.6-0.6c-0.9,0-1.8,0.2-2.6,0.5c-1.1,0.4-2.2,0.9-3.3,1.5c-1.5,0.8-2.9,1.7-4.4,2.5
	c-2.7,1.6-5.6,2.9-8.6,3.9c-1.4,0.5-2.8,1-4.1,1.6c-1.4,0.6-1.4,1-0.8,2.3c0.4,0.7,0.9,1.3,1.4,1.8c0.5,0.6,1.1,1.2,1.7,1.8
	c-0.3,0.4-0.6,0.2-0.9,0.1c-1.2-0.4-2.5-0.9-3.7-1.4c-1.6-0.7-3.2-1.5-4.9-2.2c-0.5-0.2-1.1-0.7-1.5-0.3c-0.4,0.3,0,1,0.3,1.5
	c0.4,0.9,1,1.7,1.6,2.5c0.3,0.4,0.6,0.8,0.9,1.2c-0.2,0.4-0.5,0.3-0.7,0.3c-0.9-0.1-1.9-0.3-2.7-0.8c-1-0.5-2-1.1-2.9-1.9
	c-0.9-0.7-1.7-1.4-2.5-2.1c-0.3-0.3-0.6-0.7-1.1-0.6c-0.5,0.1-1.4,0-1.9,0.6c-0.2,0.2-0.3,0.4-0.1,0.7c0.3,0.5,0.7,0.9,1.1,1.3
	c2.2,2.4,4.7,4.5,7.4,6.3c3.4,2.2,7,4.1,10.8,5.5c1,0.3,1.9,0.8,2.8,1.3c0,0.4-0.3,0.3-0.5,0.3c-2,0-4-0.2-6-0.6
	c-3.7-0.6-7.3-1.7-10.8-3.1c-3.4-1.4-6.6-3.4-9.3-5.8c-3.1-2.7-6.2-5.5-9.1-8.5c-0.2-0.2-0.3-0.4-0.5-0.6c-0.7-0.5-0.8-1.4-0.4-2.1
	c0.5-1.1,1-2.3,1.3-3.5c0.1-0.7,0.4-1.3,0.9-1.8c0.5-0.7,0.9-1.4,1.3-2.1c2.4-4.9,5.2-9.5,8.2-14c1.4-2.1,3-4,4.7-5.8
	c0.6-0.6,1.2-1.1,2-1.5c0.3-0.2,0.7-0.3,1-0.4c0.3-0.1,0.6,0.1,0.6,0.4c0,0,0,0.1,0,0.1c0,0.4-0.2,0.9-0.4,1.2
	c-0.4,0.4-0.8,0.8-1.2,1.3c-0.8,0.8-1.4,1.8-1.9,2.8c-0.5,1.1-0.5,2.4,0,3.5c0.6,1.7,2.6,2.6,4.3,2c0,0,0,0,0.1,0
	c0.9-0.4,1.7-1,2.3-1.8c0.6-0.8,1-1.6,1.4-2.5c0.5-1.4,1-2.8,1.6-4.2c0.2-0.8,0.6-1.5,1-2.1c0.5,0.7,0.9,1.4,1.3,2.1
	c0.4,0.7,0.8,1.4,1.2,2.1c0.4,0,0.6-0.2,0.8-0.4l3.7-3.8c0.8-0.8,1.6-1.7,2.4-2.5c2.5-2.6,5.2-5,8.2-7.1c1.5-1,3-2.2,4.3-3.4
	c2.6-2.5,4.2-5.8,4.5-9.4c0.3-3.3,0.2-6.7-0.5-9.9c-0.4-2.4-0.9-4.8-1.3-7.2c-0.2-1-0.2-2.1-0.3-3.1c0-0.4,0.3-0.6,0.7-0.4
	c0.6,0.2,1.1,0.6,1.5,1.1c2.9,3.1,5.2,6.6,7.1,10.3c0.3,0.7,0.7,1.4,1,2.1c0,0,0.1,0,0.1,0.1c0.4,0,0.5-0.4,0.6-0.6
	c0.5-1,1-1.9,1.5-2.9c0.8-1.8,1.5-3.7,2.2-5.5c0.6-1.6,0.9-3.3,1-4.9c0.1-1.6,0.3-3.2,0.6-4.8c0.1-0.4,0.2-0.8,0.3-1.2
	c0.1-0.1,0.2-0.2,0.3-0.3c0.2-0.1,0.3,0,0.4,0.2c0.4,0.8,0.9,1.5,1.3,2.3c0.6,1.4,1.1,2.7,1.6,4.2c0.7,2,1.3,3.9,2.1,5.9
	c0.7,1.6,0.7,1.4,1.9,0.6c6.1-3.8,12.3-7.7,18.5-11.5c1.5-0.9,2.9-2,4.2-3.3c0.5-0.5,1.1-1.1,1.7-1.6c0.1-0.1,0.3-0.1,0.4-0.1
	c0.2,0.1,0.2,0.2,0.2,0.4c0.1,0.8,0,1.7-0.1,2.5c-0.4,2-0.9,4.1-1.6,6c-1.3,3.9-2.5,7.7-3.7,11.6c-0.2,0.8-0.6,1.6-1,2.3
	c-0.4,0.7-0.7,1.4-1,2.1C102.9,5.2,102,7,101,8.8c-2.7,4.7-5.7,9.3-9,13.5c-2.3,2.8-4.7,5.3-7.3,7.8c-0.8,0.7-1.5,1.5-2.2,2.3
	c-0.1,0.2-0.3,0.3-0.1,0.5c0.2,0.2,0.4,0.1,0.6,0c1-0.3,1.9-0.8,2.8-1.3c1.4-0.8,2.9-1.7,4.3-2.6c2.1-1.2,4.3-2.5,6.5-3.6
	c1.9-1,3.9-1.9,6-2.5c3-1,6.1-1,9.1-0.2c4.4,1.1,7.8,4.5,8.8,8.9c0.6,2.6,0.7,5.2,0.2,7.8c-0.5,2.6-1.2,5.1-2.2,7.5
	c-1.9,4.8-4,9.5-6.5,14c-0.7,1.2-1.4,2.3-2.1,3.5c-0.1,0.2-0.2,0.5-0.7,0.5c0-0.9,0.2-1.8,0.4-2.7c0.7-3.1,1.5-6.3,2.2-9.4
	c0.7-2.7,1-5.5,1.1-8.3c0-1.4-0.2-2.8-0.6-4.2c-0.5-1.6-1.4-3.1-2.7-4.1c-1.7-1.5-4.1-1.9-6.2-1.1c-1.5,0.6-2.9,1.5-3.9,2.8
	c-1.1,1.2-2,2.7-2.6,4.3c-1,2.5-1.7,5-2.6,7.5c-0.4,1.1-0.7,2.2-1.1,3.2c-0.2,0.5-0.5,0.6-1,0.3c-0.5-0.3-1.1-0.8-1.6-1.3
	c-0.6-0.5-1.2-1-1.9-1.4c-1-0.7-2.4-0.4-3.1,0.6c-0.6,0.7-1.1,1.5-1.3,2.5c0.9,0.2,1.8,0.2,2.6,0c1.9-0.4,3.8,0.5,4.7,2.2
	c1.1,1.3,1.4,3.1,0.9,4.7c-0.2,0.7-0.6,1.3-1.1,1.9c-0.8,0.9-1.7,1.7-2.6,2.5c-1.6,1.2-2.7,2.8-3.3,4.6c-0.8,2.5-1.5,5-1.9,7.6
	c-0.4,2.4-0.9,4.8-1.6,7.1c-1,3.2-2.7,6-5.1,8.3c-1.1,1.1-2.4,2-3.7,2.6c-1.3,0.6-2.8,0.8-4.2,0.5c-0.5-0.1-1-0.4-1.2-0.9
	c-0.3-0.6-0.5-1.3-0.7-1.9c-0.3-0.9-0.5-1.8-0.9-2.6c-0.5-1.1-1.3-2-2.5-2.5c-0.2-0.1-0.4-0.1-0.6,0.1c-0.1,0.1-0.1,0.2-0.1,0.3
	c0,0.2,0,0.4,0,0.6c0.2,5.2,0.3,10.4,0.5,15.8c0.1,2.3,0.4,4.6,0.8,6.8c0.6,3.3,1.2,6.6,2,9.8c0,0.2,0,0.3,0,0.5
	c-0.5-0.4-0.8-1-1-1.6c-0.7-1.6-1.3-3.3-2-4.9c-1.1-3.2-2.1-6.4-3-9.7c-0.7-2.3-1-4.7-1.1-7.1c-0.1-3.6,0.3-7.2,1.1-10.7
	c0.2-0.8,0.5-1.6,0.9-2.3c0.2-0.3,0.5-0.5,0.9-0.4c1.3,0.3,2.6,0.7,3.9,0.9c2,0.4,4.1,0.3,6.1-0.5c0.2-0.1,0.4-0.2,0.7-0.4
	c-0.1-0.5-0.5-0.6-0.8-0.8c-0.6-0.4-1.3-0.8-1.9-1.2c-0.8-0.5-1.4-1.1-2-1.8c-0.5-0.6-0.8-1.3-1-2.1c-0.2-1.1,0-1.3,1.1-1.3
	c0.7,0,1.3,0.1,2.1,0.2c1.4,0.2,2.9,0.1,4.2-0.3c0.4-0.1,0.6-0.4,0.6-0.8c0,0,0,0,0,0c-0.1-1.5-0.2-3-0.4-4.5
	c-0.3-3.2-0.8-6.3-1.6-9.4c-0.4-1.8-1.1-3.5-1.9-5.1c-0.7-1.4-1.5-2.6-2.6-3.7C68.2,53.4,67.7,53,67.1,52.9L67.1,52.9z M74.5,37.3
	c-0.6,0-1,0-1.3,0c-1.3,0.1-2.6,0.6-3.6,1.5c-1.7,1.4-2.5,3.6-2.1,5.7c0.4,1.7,1.3,3.3,2.6,4.5c2.1,1.7,5.1,1.9,7.4,0.5
	c2-1.1,3.2-3.2,3.2-5.4c0.1-1.9-0.7-3.7-2.1-5C77.3,37.9,76.1,36.9,74.5,37.3z M76.6,7.9c0,0.7,0,1.3,0.2,2c0.4,1.2,1.1,2.3,2,3.1
	c1.7,1.6,4,2.2,6.3,1.6c1.2-0.3,2.4-0.9,3.5-1.5c0.3-0.2,0.6-0.5,0.8-0.8c0.9-1.3,1.4-2.8,1.3-4.4c0.1-2.4-1.1-4.7-3.2-6.1
	c-1.3-1.1-3-1.4-4.6-1c-0.2,0.1-0.4,0.1-0.6,0.1c-0.8,0-1.6,0.2-2.2,0.7C77.9,3.3,76.4,5.2,76.6,7.9z M66.5,25.8
	c-0.5,0-0.7,0-0.9,0.1c-2.6,0.6-4.9,1.9-6.9,3.7c-0.6,0.5-1,1-1.4,1.6c-1.1,1.8-2.1,3.6-3.2,5.4c0.6,0.1,1.3,0.1,1.9-0.1
	c1.9-0.6,3.7-1.4,5.5-2.3c1.3-0.6,2.3-1.7,2.8-3C65,29.4,65.7,27.7,66.5,25.8z M19,63.8c2.2,0.2,4.1-1.2,4.7-3.3
	c0.3-1,0.2-2-0.3-2.9c-0.5-1.3-1.6-2.3-2.9-2.7c-1.4-0.4-2.9-0.2-4,0.7c-0.9,0.5-1.5,1.3-1.7,2.3c-0.4,1.7,0.1,3.5,1.4,4.7
	C16.9,63.4,18,63.8,19,63.8z M29,53.5c1,0.3,2-0.4,2.8-1.1c1.2-0.9,1.7-2.5,1.3-3.9c-0.4-1.5-1.7-2.5-3.2-2.7
	c-1.4-0.2-2.8,0.3-3.7,1.4c-0.8,0.9-1.2,2.1-1,3.3c0.3,1.2,1,2.3,2.1,2.8c0.1,0.1,0.3,0.1,0.5,0.1C28.1,53.5,28.4,53.5,29,53.5z
	 M71.5,90c0,1,0.5,1.4,1.3,1.1c0.4-0.1,0.7-0.3,1-0.5c0.6-0.5,1.1-1.1,1.6-1.7c0.5-0.5,0.8-1.1,1-1.7c0.3-0.6,0.2-1.3-0.3-1.7
	c-0.4-0.3-1.1-0.2-1.8,0.2l-0.1,0.1c-1.2,0.9-2.1,2.2-2.7,3.6C71.6,89.6,71.6,89.8,71.5,90z"/>
<path class="st0" d="M122.5,45l-1.7,0.3c-0.2-0.4,0.1-0.6,0.3-0.8c1-1.2,2-2.4,2.8-3.7c1.7-2.2,3-4.6,3.9-7.2c0.5-1.3,0.9-2.7,1-4.2
	c0.6-2.5-0.1-5.2-1.9-7.1c-0.7-0.8-1.4-1.5-2.2-2.3c-0.7-0.6-1.2-1.4-1.7-2.2c0.2-0.4,0.5-0.3,0.7-0.4c3.1-0.4,6.2-0.1,9.2,0.9
	c1,0.3,1.9,0.6,2.9,0.9c1,0.5,2.1,0.9,3.2,1.1c1.2,0.6,2.7,0.4,3.6-0.6c1.4-1.2,3.2-1.9,5-2c0.8-0.1,1.7-0.2,2.5-0.3
	c1.4,0.2,2.9,0.3,4.3,0.5c1.6,0.3,3.3,0.7,4.9,1c1.1,0.4,2.3,0.8,3.4,1.3c1.1,0.4,2.2,1,3.2,1.7c1.5,0.9,2.2,2.9,1.5,4.5
	c-0.2,0.8-0.5,1.5-0.9,2.1c-1.5,2.6-3.6,4.7-6.2,6.3c-6.5,4.1-13.7,6.8-21.3,7.8c-0.2,0-0.4,0.1-0.6,0.2l-6.3,0.6h-0.3
	c-0.2,0-0.5,0-0.6-0.1c-0.1-0.1,0-0.4,0.2-0.5c0.7-0.8,1.6-1.3,2.6-1.6c1.3-0.5,2.6-0.8,3.9-1.3c0.8-0.2,1.5-0.5,2.2-0.9
	c1.7-0.7,3.3-1.7,4.7-2.9c0.8-0.5,1.5-1.1,2.1-1.8c2.4-2.7,3.5-6.2,3-9.8c0,0-0.1-0.2-0.2-0.2c-0.1,0-0.3,0.1-0.4,0.2
	c-0.1,0.1-0.1,0.2-0.2,0.3c-1.2,1-2.3,2.1-3.3,3.3c-1.3,1.4-2.6,2.7-4,3.9c-2,1.7-4,3.3-6.1,4.9l-1.8,1.3c-0.7,0.4-1.3,0.8-2,1.3
	c-2.4,1.7-5,3.2-7.7,4.4c-0.2,0.1-0.4,0.2-0.5,0.3C123.3,44.6,122.9,44.7,122.5,45z M153,28.8c-0.1,0.9,0.2,1.8,0.8,2.5
	c0.1,0.1,0.2,0.2,0.3,0.4c0.9,1.4,2.6,2,4.2,1.5c1.4-0.3,2.5-1.3,3-2.5c0.3-0.9,0.4-1.8,0.2-2.8c-0.3-2.2-2.2-3.9-4.4-3.9
	c-2.1,0.1-3.9,1.7-4.1,3.8C153,28,153,28.4,153,28.8z"/>
<path class="st0" d="M67,52.8c0,0.1-0.2,0.2-0.2,0.2c0.4,1.8,0.3,3.7-0.3,5.5c-0.4,1.6-0.9,3.1-1.5,4.6c-2.1,5.9-3.8,11.9-5,18
	c-0.5,2.8-1.1,5.5-1.7,8.2c-0.2,1.1-0.4,2.3-0.5,3.4c-0.2,2.3-0.5,4.5-0.7,6.8c-0.1,0.7-0.2,1.4-0.4,2.2c-0.2,0-0.4,0-0.5-0.2
	c-2.6-2.9-4.5-6.3-5.6-10c-0.7-2.6-0.8-5.2-0.3-7.8c0.8-4.2,1.6-8.4,2.2-12.6c0.3-2.1,0.5-4.1,0.6-6.2c0-0.5,0-1,0-1.6
	c-0.1-0.7-0.3-0.9-1-0.7c-0.5,0.1-1,0.2-1.5,0.4c-0.3,0.1-0.7,0.1-1.1,0c-0.4-0.2-0.6-0.4-0.4-0.8c0.3-0.7,0.8-1.2,1.4-1.7
	c0.7-0.4,1.3-0.9,2-1.3c2.3-1.3,4.7-2.6,7-3.9c0.9-0.6,2-1,3-1.4c0.7-0.3,1.4-0.4,2.2-0.5c0.3,0,0.7,0.1,0.9-0.1
	C66.2,53.1,66.7,53.2,67,52.8L67,52.8z"/>
<path class="st0" d="M155.6,43.1c0.5-0.5,1-0.9,1.7-1.2c1.7-0.9,3.4-1.8,5.2-2.7c1.8-0.9,3.5-2,5.1-3.1c0.9-0.7,1.8-1.4,2.6-2.3
	c0.5-0.6,1-1.2,1.5-1.8c1.6-2.2,1.7-5.1,0.4-7.4c-0.5-1-1.1-1.9-1.9-2.7l-1-1.1c0.2-0.4,0.5-0.3,0.7-0.3c1.7,0,3.4,0.2,5,0.7
	c3.6,0.9,6.9,2.6,9.9,4.8c1,0.8,1.9,1.6,2.7,2.6c0.5,0.6,0.9,1.3,1.2,2c0.9,1.8,0.8,3.9-0.2,5.5c-1.6,2.7-4,5-6.7,6.5
	c-0.9,0.5-1.9,0.8-3,1c-2.4,0.5-4.8,0.8-7.2,0.9c-3.7,0.1-7.5,0-11.2-0.5l-3.5-0.4C156.4,43.5,156,43.4,155.6,43.1z"/>
<path class="st0" d="M190.5,49.7c-2.7,0.1-5.4,0.6-8,1.5c-2.5,0.8-4.8,2-6.9,3.5c-0.3-2,0.8-4,2.6-5c1.1-0.6,2.4-0.9,3.6-0.9
	c1.6,0,3.2,0,4.8,0c2.5,0.2,4.9,0.5,7.4,0.7c2.3,0.2,4.6,0.2,6.8-0.1c1.7-0.3,3.2-1,4.6-2c1.6-1.4,3.1-3,4.3-4.8
	c0.5-0.6,0.5-1.5,0-2.2c-0.6-0.9-1.1-1.8-1.7-2.6c-0.5-0.7-0.9-1.5-1.3-2.3c0-0.1,0-0.2,0-0.3c0.1-0.2,0.3-0.1,0.4,0
	c0.7,0.3,1.3,0.6,2,1c4,2.4,7.4,5.8,9.7,9.9c0.6,1,1,2.1,1.3,3.2c0.3,1.1,0.4,2.2,0.2,3.2c-0.2,1.5-1,2.8-2.3,3.6
	c-1.6,1.1-3.4,1.8-5.2,2.1c-2.5,0.3-5,0.2-7.4-0.5c-2.4-0.6-4.8-1.5-7.1-2.5c-2.7-1.1-5.4-2.4-8.2-3.3c-0.5-0.2-0.6-0.3-0.3-0.8
	C190,50.6,190.1,50.3,190.5,49.7z"/>
<path class="st0" d="M38.7,196.3c-0.5,0-0.7-0.3-1-0.5c-1-1-1.9-2.2-2.8-3.3c-1.1-1.5-2.5-2.9-3.9-4.2c-0.7-0.7-1.6-1.2-2.5-1.6
	l-0.6-0.2c-0.4-0.1-0.6,0-0.6,0.4c0,1.2-0.1,2.4-0.1,3.6c0.1,2.9,0.4,5.8,0.7,8.7c0,0.1,0,0.2,0,0.3c0,0.1-0.1,0.2-0.1,0.2
	c-0.1,0-0.2,0-0.3,0c-0.3-0.3-0.6-0.7-0.9-1.1c-0.7-1-1.3-2-1.8-3.1c-2.1-4.3-3.6-8.8-4.4-13.4c-1.1-5.5-1.6-11.1-1.8-16.7
	c-0.1-3,0.1-5.9,0.5-8.9c0-0.1,0-0.3,0.2-0.4c0.2,0,0.3,0.1,0.4,0.2c0.4,0.8,0.9,1.5,1.3,2.3c3,5.9,5.9,11.8,8.7,17.8
	c1.7,3.7,3.6,7.4,5.5,11.1c1.1,2.1,2,4.2,2.9,6.4C38.4,194.7,38.6,195.5,38.7,196.3z M22.6,179.8c0.1,0.8-0.1,1.3,0.2,1.8
	c0.4,0.7,1.1,1.3,1.9,1.6c0.4,0.2,0.9,0.2,1.4,0c0.9-0.4,1.7-1.1,2.1-2c0.2-0.5,0.3-1.1,0.1-1.7c-0.3-0.9-0.9-1.7-1.8-2.1
	c-0.7-0.4-1.6-0.4-2.2,0C23.3,178,22.4,178.7,22.6,179.8z"/>
<path class="st0" d="M94,251.7c-2.2-0.5-4.5-0.6-6.8-0.4c-0.7,0.1-1.5,0.2-2.1,0.6c-1.3,0.5-1.9,2-1.4,3.3c0.3,0.9,0.7,1.7,1.3,2.5
	c0.9,1.3,1.9,2.5,2.9,3.7c0.6,0.7,1.1,1.5,1.6,2.3c-0.2,0.3-0.5,0.2-0.7,0.1c-0.9-0.4-1.8-0.8-2.7-1.3c-4.8-2.5-9.2-5.6-13.2-9.2
	c-1.6-1.4-3.1-3-4.3-4.8c-0.7-0.9-1.2-1.9-1.6-3.1c0-0.2-0.1-0.4-0.2-0.6c-0.4-1.4,0.5-2.9,1.9-3.4c1.6-0.6,3.3-0.8,5-0.5
	c2.3,0.4,4.6,1,6.8,1.9c3.6,1.4,7,3.1,10.3,5.1l1.6,1c0.7,0.4,1.4,0.9,2,1.3c0.6,0.4,1.1,0.9,1.3,1.6
	C95.2,252.1,94.6,251.5,94,251.7z"/>
<path class="st0" d="M165.3,260.8c-0.3,0.6-0.8,1.2-1.4,1.5c-1,0.6-2,1.2-3,1.8c-1.2,0.7-2.4,1.6-3.4,2.6c-0.9,0.9-1.5,2-1.8,3.3
	c-0.1,0.3,0,0.6,0.3,0.7c0,0,0,0,0.1,0c3.2,1.3,6.6,2.3,9.9,3.1c1.9,0.4,3.7,0.8,5.6,1.3c0.5,0.1,1,0.3,1.5,0.4
	c-0.1,0.3-0.3,0.5-0.6,0.5c-1.6,0.5-3.2,0.8-4.8,0.9c-4.8,0.5-9.7,0.6-14.6,0.3c-3-0.1-5.9-0.5-8.8-1.2c-2.1-0.6-4.1-1.6-6-2.8
	c-0.4-0.2-0.6-0.7-0.5-1.2c0.1-1.2,0.7-2.2,1.7-2.9c0.8-0.5,1.6-1,2.4-1.5c5.3-3.1,11.1-5.2,17.1-6.3
	C161.1,261,163.2,260.8,165.3,260.8z"/>
<path class="st0" d="M46.4,227.5c-2.3-2.8-4.5-5.7-6.5-8.7c-3.5-5.4-6.1-11.3-7.8-17.4c-0.5-1.8-0.8-3.7-1-5.5c0-0.6,0-1.2,0-1.8
	c0.4-0.2,0.7,0.1,0.9,0.2c1.2,0.7,2.3,1.5,3.3,2.4c5,4.3,9.5,9.1,13.5,14.4c1.8,2.3,3.5,4.8,5.1,7.3c0.6,0.7,1,1.6,1,2.5
	c-0.9-0.1-1.7-0.4-2.5-0.9c-1.1-0.5-2.2-1.1-3.2-1.6c-1.2-0.6-2.4-1-3.7-1.3c-0.4,0.3-0.2,0.7-0.2,1c0.1,1.8,0.4,3.6,0.8,5.4
	c0.1,0.8,0.3,1.6,0.4,2.5C46.4,226.4,46.4,227,46.4,227.5z"/>
<path class="st0" d="M182.4,255.3c0.1,0.3,0,0.5-0.2,0.7l-2,2.6c-0.8,1-1.5,2.1-2.1,3.3c-0.7,1.7-0.8,2.3,1.2,3.6
	c1.3,0.8,2.8,1.2,4.3,1.3c2.1,0.2,4.2,0.4,6.3,0.6c1,0.1,2,0.3,2.9,0.7c0.2,0.1,0.4,0.2,0.5,0.3c-0.1,0.3-0.3,0.3-0.5,0.3
	c-4.1,1.4-8.4,2.6-12.6,3.5c-4.2,0.8-8.5,1-12.8,0.5c-0.8-0.1-1.7-0.3-2.5-0.6c-2.1-0.5-3.3-2.6-2.9-4.6c0-0.2,0.1-0.4,0.2-0.5
	c0.2-0.7,0.6-1.5,1-2.1c0.7-1,1.5-1.8,2.4-2.6c4.2-3.5,9.3-5.9,14.7-6.9C181.1,255.3,181.8,255.2,182.4,255.3z"/>
<path class="st0" d="M121.4,273.6c-0.8-0.5-1.6-0.9-2.5-1.3c-0.1-0.1-0.3-0.1-0.4,0l0,0c0.2-0.4-0.2-0.3-0.4-0.4
	c-1.7-0.9-3.4-2-5-3.2c-0.1,0-0.1,0-0.2,0l-1.9-2.3c-0.1-0.5,0.2-1,0.6-1.3c1.2-0.9,2.5-1.5,3.9-2.1c0.5-0.1,0.9-0.3,1.3-0.5
	c1.3-0.3,2.6-0.5,3.9-0.8c4-0.7,8-0.9,12-0.6c2.2,0.1,4.3,0.4,6.4,0.9c0.6,0.1,1.1,0.3,1.7,0.5c0.2,0.1,0.4,0.1,0.5,0.4
	c0,0.2-0.3,0.3-0.6,0.4c-1.6,0.4-3.1,1-4.6,1.6c-1.6,0.6-3,1.6-4.2,2.8c-1.6,1.8-1.7,1.8,0.1,3.7c1.9,1.7,3.9,3.2,6.2,4.3
	c0.8,0.3,1.5,0.8,2.1,1.3c-0.1,0.3-0.4,0.3-0.7,0.3c-1,0-2-0.1-3-0.2c-4.7-0.5-9.3-1.5-13.7-3C122.5,273.8,122,273.7,121.4,273.6z"
	/>
<path class="st0" d="M25.5,159.6c-0.4-0.2-0.6-0.6-0.8-1c-1.2-2.2-2.4-4.5-3.7-6.7c-0.3-0.5-0.6-1-1-1.4c-0.2-0.3-0.5-0.5-0.8-0.5
	c-0.7,1.4-1.2,2.9-1.3,4.4c-0.3,2.1-0.4,4.2-0.6,6.4c-0.1,0.8-0.2,1.6-0.3,2.5c-0.1,0.4-0.2,0.7-0.4,1c-0.1,0.2-0.4,0.2-0.5,0.1
	c0,0-0.1-0.1-0.1-0.1c-0.3-0.4-0.5-0.8-0.5-1.3c-0.1-0.9-0.3-1.9-0.3-2.8c-0.1-3.9,0.1-7.9,0.5-11.8c0.3-3,0.6-6,1.1-9
	c1-6.3,3-12.4,6-18c0.8-1.4,1.5-2.8,2.3-4.3c0.1-0.2,0.2-0.3,0.3-0.2c0.2,0,0.2,0.2,0.2,0.4c0.1,3.1,0,6.1-0.1,9.1
	c-0.2,7.2-0.6,14.4-0.5,21.7c0,2.5,0.3,5.1,0.5,7.6C25.5,157.1,25.5,158.3,25.5,159.6z M23,128.9c0-0.5,0-0.8-0.1-1.2
	c0-0.2-0.1-0.4-0.4-0.5c-0.3,0-0.4,0.2-0.5,0.4c-0.4,0.9-0.4,1.9,0,2.7c0.1,0.1,0.1,0.3,0.3,0.3c0.2,0,0.4-0.2,0.4-0.4
	C22.9,129.8,23,129.3,23,128.9z"/>
<path class="st0" d="M276.7,125.9c0,0.6,0,1.2,0,1.9c0.1,3.4-0.2,6.7-1,10c-0.5,1.8-1.2,3.5-2.2,5.1c-0.2,0.4-0.4,0.7-0.5,1.1
	c-0.4,0-0.6,0.4-0.9,0.6c-1.6,1.5-3.9,2-6,1.3c-0.4-0.1-0.8-0.4-1.3-0.3c-0.2-0.3-0.5-0.5-0.8-0.7c-1.4-1-2.7-2.2-3.8-3.6
	c-0.2-0.2-0.4-0.4-0.6-0.7l-0.3-0.3c0-0.2-0.1-0.3-0.2-0.4c-1.2-2-2.3-4-3.3-6.1l-0.1-0.3l-1.3-3.7c-0.1-0.5-0.2-1-0.2-1.5
	c0-0.2,0.2-0.4,0.4-0.3c0.2,0.1,0.5,0.2,0.7,0.3c1.2,1.1,2.5,2,3.9,2.8c0.4,0.5,0.9,0.9,1.5,1.1c1.5,1,3.2,1.6,4.9,1.8
	c0.5,0.1,1,0.1,1.5,0c0.4,0,0.7-0.1,1-0.3c0.2,0.1,0.5,0,0.7-0.2c1.2-0.3,2.3-1.1,2.8-2.2c0.8-0.9,1.3-2,1.5-3.1
	c0.7-1.8,1-3.7,1-5.6c0.3-0.9,0.4-1.9,0.5-2.9c0.3-0.4,0.5,0,0.7,0.1C276,121.7,276.5,123.8,276.7,125.9z"/>
<path class="st0" d="M237.2,58.5c0.6,0.3,1.1,0.7,1.6,1.2c3.6,3.6,6.1,8,7.3,12.9c0.3,1.2,0.3,2.5,0.1,3.7c-0.4,3-2.9,5.2-5.9,5.3
	c-1.9,0.1-3.8-0.1-5.6-0.7c-4.4-1.2-8.5-3.2-12.2-5.8c-0.9-0.6-1.8-1.4-2.5-2.2c0.2-0.4,0.5-0.3,0.7-0.3c1,0,1.9,0.1,2.8,0.2
	c2.2,0.2,4.4,0.3,6.5,0.1c1.8-0.1,3.5-0.6,5.1-1.5c2.1-1,3.3-3.2,3.2-5.5c-0.1-1.1-0.2-2.2-0.5-3.2c-0.2-1-0.5-2-0.7-3
	C237,59.2,237,58.8,237.2,58.5z"/>
<path class="st0" d="M229.1,82.5c0.4-0.1,0.7,0,1.1,0.2l5.2,1.9c1.6,0.6,3.2,1,4.9,1.3c1.6,0.3,3.2,0.1,4.7-0.5
	c2.6-0.9,4.3-3.4,4.1-6.2c-0.1-1.6-0.4-3.1-0.7-4.6c-0.2-1-0.4-2-0.4-3c0-0.1,0-0.3,0.2-0.3c0.1,0,0.2,0,0.3,0.1
	c0.8,0.6,1.5,1.3,2,2.2c1.7,2.4,3,5,4,7.7c0.8,2,1.4,4,1.7,6.1c0.2,1.1,0.2,2.3,0.2,3.4c0,0.6-0.2,1.2-0.4,1.8
	c-0.5,1.4-1.7,2.4-3.2,2.7c-1.5,0.3-3.1,0.2-4.5-0.2c-2-0.5-3.9-1.2-5.7-2.2c-4.3-2.3-8.3-5.2-11.8-8.6c-0.5-0.4-0.9-0.9-1.3-1.3
	C229.2,82.9,229,82.7,229.1,82.5L229.1,82.5z"/>
<path class="st0" d="M241.8,98.1c2.2,1.4,4.7,2.4,7.3,3c1.9,0.4,3.9,0.4,5.8-0.2c2.1-0.5,3.6-2.2,3.9-4.3c0.2-1.1,0.2-2.2,0.1-3.3
	c-0.1-1.3-0.3-2.6-0.4-3.9c-0.1-0.5-0.1-1,0-1.5c0.3-0.1,0.5,0.1,0.7,0.3c0.7,0.7,1.3,1.5,1.8,2.4c2,3.3,3.3,7,3.9,10.8
	c0,0.1,0.1,0.3,0.1,0.4c-0.1,0.4-0.1,0.9,0,1.3c0.2,2.4-0.5,4.7-1.9,6.6l-1.9,1.3l-1.9,0.5c-1.4,0-2.7-0.1-4.1-0.3
	c-0.2-0.1-0.3-0.3-0.5-0.3c-1.2-0.3-2.3-0.8-3.3-1.4c-1.3-0.7-2.4-1.6-3.6-2.4c-2-1.7-3.9-3.5-5.6-5.5c-0.2-0.2-0.4-0.4-0.6-0.5
	c-0.1-0.5-0.5-0.8-0.7-1.1c-0.5-0.6-0.9-1.3-1.2-2c0-0.1,0-0.2,0-0.3c0.1-0.2,0.2-0.2,0.4-0.1C240.6,97.8,241.1,98.2,241.8,98.1z"/>
<path class="st0" d="M266.4,104.3l0.2-1.3c0.4,0,0.5,0.2,0.6,0.5c0.7,1.4,1.3,2.8,1.8,4.2c0.1,0.5,0.3,1,0.6,1.4
	c0.4,1.9,0.8,3.7,1.3,5.6l0.1,0.9c-0.1,0.4,0,0.9,0.2,1.3c0,1.4-0.1,2.9-0.1,4.3c-0.1,0.4-0.2,0.8-0.1,1.2l-0.6,1.9
	c-0.5,1-1.2,2-2,2.8c-0.1,0.1-0.1,0.2-0.2,0.4c-1.2,0.5-2.4,0.9-3.6,1.1c-0.2-0.2-0.5-0.2-0.7-0.2c-0.9,0-1.9-0.3-2.7-0.7
	c-0.3-0.1-0.7-0.3-1-0.4c-1.5-1-2.9-2.1-4.3-3.3c-0.1-0.1-0.2-0.1-0.3-0.1c0-0.1-0.1-0.3-0.2-0.4l-3-3.3c-0.2-0.4-0.5-0.8-0.7-1.2
	c-1.2-1.7-2.2-3.6-2.8-5.7c0-0.4,0-0.7,0.6-0.5c0.1,0,0.3,0,0.4,0l0,0c-0.1,0.4,0.1,0.3,0.3,0.3l0,0c1.7,1.4,3.7,2.6,5.8,3.4
	c0.9,0.3,1.9,0.4,2.8,0.3c0.3,0.1,0.7,0.1,1,0c0.8-0.1,1.5-0.3,2.2-0.7c1-0.2,1.8-0.7,2.5-1.5c1.1-1,1.8-2.4,1.8-4
	C266.4,108.7,266.5,106.5,266.4,104.3z"/>
<path class="st0" d="M43.5,106.7c0.6-5.3,2-10.4,4.2-15.2c0.3-0.6,0.6-1.2,1-1.8c0.1-0.1,0.3-0.2,0.4-0.1c0,0,0.1,0.1,0.1,0.1
	c0.1,0.4,0.3,0.9,0.4,1.3c0.1,0.7,0.2,1.4,0.3,2.2c0.2,1.5,0.7,2.9,1.5,4.2c0.4,0.6,0.8,1.2,1.2,1.8c0.4,0.6,1.1,1.6,1.6,2.3
	c2,2.6,3.3,5.7,3.9,8.9c0.1,0.3,0.1,0.6,0.1,0.9c-0.2,1.4-0.2,2.8-0.1,4.2c0,1-0.1,2.1-0.3,3.1c-0.1,0.6-0.3,0.8-1,0.7
	c-0.8-0.1-1.7-0.2-2.5-0.5c-3-1-5.7-2.7-8-4.9c-0.6-0.6-1.2-1.3-1.6-2.1C43.8,110.4,43.3,108.5,43.5,106.7z M51.3,112.8
	c1.2,0.1,2.3-0.6,2.8-1.7c0.4-0.7,0.4-1.6,0-2.4c-0.5-1.1-1.7-1.8-3-1.6c-0.2,0-0.3,0-0.5,0c-1.5,0.3-2.7,1.6-2.6,3.2
	c0,0.2,0.1,0.3,0.1,0.4c0.3,0.7,0.7,1.2,1.3,1.7C50,112.9,50.5,112.7,51.3,112.8L51.3,112.8z"/>
<path class="st0" d="M106.7,261.6c-0.4,1-0.5,2.1-0.3,3.2c0.2,0.9,0.6,1.7,1.3,2.2c1.2,1.1,2.3,2.2,3.5,3.3c0.8,0.8,1.8,1.5,2.6,2.3
	c0.2,0.2,0.5,0.3,0.5,0.8c-0.7-0.1-1.4-0.3-2.1-0.5c-2.9-1-5.8-2.2-8.6-3.6c-3.2-1.5-6.4-3.3-9.3-5.2c-1.5-1-3-2.1-4.3-3.4
	c-0.5-0.5-0.9-1-1.3-1.6c-1.1-1.8-0.7-3.1,1.3-3.9c1-0.4,2-0.6,3.1-0.7c0.5,0,0.9-0.1,1.4-0.1l3.2-0.2c0.1,0,0.2,0.1,0.2,0.1
	c0.1,0.1,0.2,0.2,0.3,0.1c0,0,0,0,0.1,0l3.8,0.2c2.3,0.2,4.5,0.6,6.7,1.2c0.4,0.1,0.7,0.1,1.1,0.1c1.3,0.8,2.9,1.1,4.3,1.8
	c0.8,0.3,1.5,0.6,2.2,1c-0.8,0.5-1.8,0.4-2.6,0.9l-5.2,1.2L107,261C106.8,261.1,106.6,261.3,106.7,261.6z M100.7,259.2
	c0-1.3,0-1.3-1.2-1.9c-0.6-0.4-1.3-0.4-1.9-0.1c-0.2,0.1-0.5,0.2-0.7,0.2c-1.2,0.2-1.6,1.1-1.8,2.1c-0.1,0.6,0,1.2,0.4,1.6
	c0.6,0.7,1.6,1.1,2.5,0.9c0.8-0.1,1.6-0.5,2.1-1.2C100.6,260.3,100.8,259.8,100.7,259.2z"/>
<path class="st0" d="M188.8,26.2c0.9,0.2,1.8,0.5,2.6,0.9c3,1.2,5.9,2.9,8.4,4.9c1.1,0.9,2.1,1.9,3,3c0.6,0.8,1.1,1.8,1.5,2.7
	c0.5,1.6,0.4,3.4-0.5,4.8c-0.8,1.5-2.1,2.8-3.7,3.5c-1.8,0.8-3.8,1.3-5.8,1.5c-4.3,0.4-8.5,0.3-12.8-0.3c-1.3-0.1-2.5-0.5-3.6-1.1
	c-0.1-0.1-0.3-0.2-0.2-0.4c0-0.1,0.1-0.2,0.2-0.2l0.4-0.2c0.3-0.1,0.7-0.2,1-0.4c1.8-0.7,3.5-1.4,5.2-2.2c1.7-0.8,3.3-1.8,4.8-3
	c1.6-1.3,2.6-3.2,3-5.2c0.4-1.8-0.1-3.8-1.3-5.2c-0.7-0.8-1.3-1.6-2-2.4C188.9,26.7,188.8,26.5,188.8,26.2z M193,40.1
	c0,0.8,0.4,1.6,1,2.1c0.6,0.6,1.5,1,2.4,1c1.6-0.1,2.9-1.1,3.4-2.6c0.1-0.4,0.2-0.9,0.1-1.3c-0.4-1.6-1.9-2.6-3.5-2.6
	c-1.8,0-3.3,1.4-3.4,3.3C193,39.9,193,40,193,40.1z"/>
<path class="st0" d="M73.6,238.1l-5.6-0.7l-3.1-0.4c-0.8-0.1-0.9,0-1.3,0.8c-0.7,1.8-0.7,3.7,0,5.5c0.3,0.8,0.7,1.6,1.1,2.4
	c0.3,0.6,0.6,1.3,0.7,2c-0.6-0.3-1.2-0.7-1.7-1.2c-2.6-2.4-5.1-5-7.3-7.7c-2-2.4-3.7-5.1-5-7.9c-1-2.1-1.8-4.3-2.2-6.6
	c-0.3-1.7-0.3-1.8,1.5-1.7c2.2,0.2,4.4,0.8,6.4,1.7c1.2,0.5,2.4,1.1,3.5,1.8c4.6,2.7,8.7,6.2,12,10.4
	C72.8,236.9,73.1,237.4,73.6,238.1z M56.2,228.2c-1.3,0-1.9,0.6-1.8,1.8c0,0.3,0.1,0.5,0.2,0.7c0.5,1.3,1.5,2.3,2.7,2.9
	c0.9,0.5,2,0.6,3.1,0.4c0.5-0.1,0.9-0.6,0.9-1.1c0-0.3,0-0.6-0.1-0.9c-0.7-1.7-2-3-3.7-3.6C57.1,228.3,56.6,228.2,56.2,228.2z"/>
<path class="st0" d="M230.3,244.2c0.1,0.3-0.1,0.5-0.3,0.7c-0.4,0.5-0.9,1-1.4,1.5c-4,3.6-8.8,6.4-13.9,8.1
	c-2.6,0.9-5.2,1.3-7.9,1.2c-0.5,0.1-1,0-1.4-0.3c-0.3-3,0.1-6,1.4-8.8c0.7-1.5,1.6-2.9,2.7-4.2c1.8-2.3,3.8-4.5,6-6.4
	c0.9-0.8,1.8-1.5,2.8-2.2c0.4,0.2,0.2,0.5,0.2,0.7c-0.2,0.9-0.5,1.8-0.7,2.7c-0.2,0.9-0.5,1.7-0.7,2.5c-0.2,0.8-0.2,1.5-0.2,2.3
	c0,2,1.7,3.6,3.7,3.6c1.6,0,3.2-0.1,4.7-0.6l4-0.9C229.5,244.1,229.9,244.1,230.3,244.2z M211,249.4c0,0.4,0,0.7,0.1,1.1
	c0.5,1.2,1.9,1.8,3.1,1.4c0.3-0.1,0.6-0.3,0.8-0.5c0.2-0.3,0.5-0.5,0.8-0.8c0.7-0.8,0.7-2.1-0.2-2.9c0,0,0,0-0.1,0
	c-0.9-0.7-2-0.8-3-0.4C211.6,247.4,210.9,248.4,211,249.4L211,249.4z"/>
<path class="st0" d="M244.3,232.6c-0.4,0.6-0.9,1-1.4,1.4c-3.4,2.7-7.1,5.1-11.1,6.9c-3.3,1.4-6.9,2-10.5,1.6
	c-0.7,0-0.8-0.2-0.8-0.9c-0.1-1,0-2,0.2-2.9c0.3-1.4,0.8-2.7,1.4-3.9c2.2-4.4,5-8.3,8.5-11.8c0.4-0.4,0.8-0.7,1.2-1
	c0.2-0.2,0.4-0.2,0.7-0.1c-0.1,0.8-0.2,1.6-0.3,2.4c-0.1,1-0.3,2.1-0.4,3.1c-0.1,0.9-0.1,1.9,0.1,2.8c0.3,1.5,1.4,2.8,2.9,3.2
	c1.8,0.6,3.8,0.5,5.6-0.3c0.9-0.4,1.8-0.9,2.7-1.3C243.8,231.5,244.1,232,244.3,232.6z"/>
<path class="st0" d="M162.2,7c1.2-0.1,2.3-0.2,3.5-0.6c0.3,0.1,0.6,0,0.8,0.3c-0.8,0.4-1.6,0.8-2.4,1.2c-0.5,0.2-1.1,0.5-1.6,0.6
	c-1.4,0.4-2.8,0.8-4.3,1.2c-1.4,0.4-2.8,0.8-4.3,1.1c-3.1,0.5-6.3,0.8-9.4,0.9c-0.6,0-1.2,0-1.7,0.1c-0.3-0.1-0.6-0.1-0.8,0
	l-4.1-0.1c-3.5-0.1-7-0.5-10.4-1.3c-1.6-0.3-3.1-0.8-4.5-1.5c-0.2-0.1-0.5-0.3-0.6-0.5c0.3-0.4,0.7-0.8,1.1-1
	c2.3-1.6,4.8-3.1,7.3-4.4c0.6-0.4,1.4-0.4,2.1-0.1c1.8,0.7,3.5,1.4,5.3,2c5.9,2.1,12.2,3,18.5,2.5c0.2,0,0.3,0,0.5-0.1
	C158.8,7.4,160.5,7.2,162.2,7z"/>
<path class="st0" d="M18.3,124.7c-0.1-0.6,0-1.2,0.1-1.8c0.7-2.7,1.6-5.4,2.8-7.9c3.5-7.9,7.8-15.4,12.7-22.5
	c0.9-1.3,1.9-2.5,2.9-3.7c0.2-0.3,0.5-0.6,0.9-0.7c0.1,0.3,0,0.4-0.1,0.6c-2,4.9-3.6,10-4.8,15.2c-0.9,3.5-1.7,7.1-2.4,10.7
	c-0.3,1.9-0.5,3.9-0.5,5.9c-0.1,1.1-0.2,2.3-0.4,3.4c-0.1,0.5-0.2,1-0.4,1.5c-0.1,0.2-0.3,0.2-0.5,0.1c0,0-0.1,0-0.1-0.1
	c-0.4-0.3-0.7-0.8-0.8-1.3c-0.2-0.6-0.3-1.2-0.4-1.8c-0.2-1.9-0.4-3.8-0.7-5.7c-0.1-0.8-0.3-1.6-0.6-2.4c-0.1-0.2-0.2-0.2-0.4-0.2
	c0,0-0.1,0-0.1,0.1c-0.4,0.4-0.7,0.9-1,1.3c-1,1.6-2,3.2-3,4.8c-0.7,1.2-1.5,2.4-2.3,3.5C19.1,124.1,18.7,124.5,18.3,124.7z"/>
<path class="st0" d="M256.4,215.8c-0.1,0.4-0.3,0.8-0.6,1.1c-2.8,3.5-6.1,6.6-9.7,9.4c-1.2,0.9-2.5,1.7-3.9,2.4
	c-0.7,0.3-1.5,0.6-2.2,0.8c-0.8,0.2-1.6,0.2-2.3-0.1c-1.1-0.3-1.9-1.2-2.2-2.2c-0.3-1-0.4-2.1-0.2-3.1c0.2-1.7,0.7-3.5,1.3-5.1
	c1.2-3.2,2.8-6.3,4.6-9.1c0.2-0.4,0.5-0.8,0.8-1.2c0.4-0.4,0.6-1.1,1.3-1.2c0.2,0.5,0.2,1.1,0.1,1.7c0,0.8-0.1,1.7-0.2,2.5
	c-0.1,1,0,2.1,0.1,3.1c0.3,2.6,2.6,4.4,5.2,4.2c1.2-0.1,2.3-0.4,3.3-0.9c1-0.4,1.9-1,2.8-1.4C255.2,216.1,255.8,215.9,256.4,215.8z"
	/>
<path class="st0" d="M199.3,19.5l-4.7,0.5c-1.5,0.1-3.1,0.2-4.6,0.1c-7.6-0.4-15-1.8-22.2-4.2c-1.3-0.5-2.6-1.1-3.9-1.6
	c-0.2-0.1-0.5-0.1-0.7-0.2c-0.2-0.1-0.5-0.3-0.8-0.4l-3.9-1.8c-0.2-0.4-0.3-0.7,0.2-0.9s0.7-0.2,1-0.3c2.1-0.6,4.2-1.4,6.2-2.3
	c0.6-0.3,1.3-0.5,1.9-0.8c0.6-0.4,1.5-0.3,2,0.1c0.4,0.3,0.9,0.5,1.3,0.8c0.6,0.5,1.2,1,1.8,1.4c2.4,2,5.1,3.6,8,4.9
	c3,1.3,6.1,2.2,9.2,2.7c2.6,0.4,5.3,0.7,8,1c0.3,0,0.5,0,0.8,0c0.7,0.2,1.5,0.4,2.2,0.4C200.6,19.3,199.8,19,199.3,19.5z"/>
<path class="st0" d="M271.7,221.8c0.3,0.1,0.4,0.4,0.5,0.6c0.3,1.3,0.6,2.5,1,3.8c0.4,1.5,1.1,2.8,2,4c0.4,0.4,0.6,0.5,1.1,0.2
	c1.4-0.9,2.7-2,3.9-3.1l4.1-3.7c0.1-0.1,0.3-0.2,0.4-0.2c0.3,0.9,0.3,1.8,0.1,2.7c-0.4,1.8-1,3.5-1.8,5.1c-0.9,1.9-1.9,3.8-3.1,5.6
	c-1.3,1.8-2.9,3.3-4.7,4.5c-1,0.6-2.1,0.9-3.3,0.8c-1.6-0.2-2.9-1.4-3.3-2.9c-0.2-0.8-0.4-1.6-0.4-2.4c0-2,0.2-4,0.6-6
	c0.5-2.5,1.3-5,2.2-7.4C271.1,222.8,271.4,222.3,271.7,221.8z"/>
<path class="st0" d="M271.6,162.3l-1.2,0.4c-1.8,0.7-3.8,0.5-5.4-0.6c-1.5-1-2.8-2.4-3.6-4c0.3,0,0.6-0.2,0.6-0.5
	c0.2-1.2,0.4-2.4,0.7-3.6c0.2-1.1,0.5-2.3,0.9-3.4l0.9,0.4c0.8,0.5,1.7,0.7,2.6,0.8c1,0.1,2,0.2,3,0.1c1.9-0.1,3.7-1.1,4.8-2.7
	c0.5-0.6,0.8-1.3,1.1-2.1c0.5-1.5,1.1-3,1.6-4.5c0.2-0.8,0.6-1.7,1.1-2.4c0.2,0.8,0.4,1.6,0.4,2.4c0.2,2.5,0.1,5-0.2,7.4
	c-0.1,0.6-0.1,1.2-0.2,1.9c-0.3,0.5-0.5,1.1-0.7,1.7c-1,2.8-2.6,5.3-4.8,7.4C272.7,161.4,272.1,161.8,271.6,162.3z"/>
<path class="st0" d="M198.9,286.2c1-0.2,2-0.5,3-1c3-1.1,6-1.9,9.1-2.4c0.9-0.2,1.7-0.3,2.6-0.3c0.1,0,0.2,0.1,0.2,0.2
	c0,0.1,0,0.2,0,0.3c-0.4,0.3-0.8,0.6-1.3,0.9c-1.1,0.7-2.1,1.5-3.1,2.4c-0.5,0.5-0.9,1-1.2,1.6c-0.7,1-0.5,2.4,0.5,3.1
	c0.2,0.2,0.4,0.3,0.7,0.3c1.1,0.4,2.2,0.7,3.4,0.8c1.4,0.1,2.7,0.3,4,0.7c0,0.4-0.2,0.5-0.5,0.6c-1.3,0.5-2.7,0.9-4.1,1.1
	c-2.7,0.6-5.5,1-8.3,1.2c-2.4,0.2-4.8,0.1-7.1-0.3c-0.9-0.1-1.8-0.5-2.7-0.9c-1.3-0.5-2-2.1-1.4-3.4c0.1-0.2,0.2-0.5,0.4-0.7
	c0.4-0.7,1-1.4,1.7-1.8c0.3-0.2,0.6-0.5,0.6-0.8c1.2-0.2,2.3-0.8,3.1-1.7C198.7,286.4,198.8,286.5,198.9,286.2L198.9,286.2z"/>
<path class="st0" d="M271.6,255c-0.1,0.6-0.3,1.1-0.7,1.5c-1.2,1.5-2.4,3-3.8,4.4c-2,2.1-4.2,4.1-6.4,6c-1.8,1.5-3.8,2.9-5.9,3.9
	c-1.3,0.6-2.7,1-4.1,1.1c-0.6,0.1-1.2-0.2-1.4-0.7c-0.5-0.7-0.6-1.5-0.4-2.2c1-3.8,2.5-7.4,4.4-10.8c1-1.7,2.2-3.4,3.4-5
	c0.6-0.7,1.2-1.3,1.8-2c0.1-0.2,0.3-0.3,0.5-0.3c0.3,0.3,0.1,0.7,0,1c-0.3,1.3-0.7,2.5-1,3.8c-0.3,1.2-0.3,2.4-0.1,3.6
	c0.1,0.5,0.2,0.9,0.4,1.3c0.1,0.4,0.5,0.6,0.9,0.5c0.4-0.1,0.7-0.2,1.1-0.3c3-1.2,5.8-2.7,8.5-4.4
	C269.6,255.7,270.5,255.2,271.6,255L271.6,255z"/>
<path class="st0" d="M223,68.4c-1.4-0.1-2.7-0.5-3.9-1c-3.8-1.4-7.3-3.4-10.4-5.9c-0.3-0.2-0.6-0.5-0.8-0.7
	c-0.2-0.1-0.3-0.3-0.4-0.4c0.1-0.4,0.4-0.3,0.6-0.3l5.5,0.5c2.3,0.3,4.5,0.2,6.8-0.2c1.5-0.3,2.9-1.1,3.8-2.3c1.1-1.4,1.6-3.2,1.3-5
	c-0.2-1.1-0.5-2.2-1-3.3c-0.5-1.2-1.1-2.4-1.7-3.5c-0.3-0.7-0.7-1.4-1-2.1c-0.1-0.1-0.1-0.3,0-0.4c0.2-0.2,0.4,0,0.5,0.1
	c0.4,0.3,0.8,0.5,1.1,0.8c3.5,2.8,6.4,6.2,8.6,10.1c0.6,0.9,1,1.9,1.2,2.9c-0.4,0-0.7,0.2-1,0.4c-2.5,2.3-4.7,4.8-7,7.3
	c-0.5,0.6-1,1.2-1.5,1.8C223.4,67.4,223.1,67.9,223,68.4z M222.7,64.2c0.2-1.4-1.4-2.2-2.5-2.2c-1,0.3-1.8,0.9-2.2,1.8
	c-0.2,1.2,0.5,2.3,1.5,2.8c1.4,0.4,2.7-0.5,3.1-1.8C222.7,64.6,222.7,64.4,222.7,64.2L222.7,64.2z"/>
<path class="st0" d="M279.2,240.1c0.1,0.4-0.1,0.8-0.3,1.2c-1.4,2.7-3,5.2-4.8,7.7c-2.1,2.9-4.6,5.4-7.5,7.5
	c-0.4,0.3-0.9,0.6-1.4,0.8c-1.6,0.8-3.5,0.2-4.3-1.4c-0.1-0.1-0.1-0.2-0.1-0.3c-0.6-1.4-0.8-2.9-0.6-4.4c0.5-3.4,1.6-6.7,3.2-9.7
	c0.6-1,1.2-1.9,2-2.8c0.1-0.1,0.2-0.2,0.4-0.2c0.2,0,0.3,0.2,0.3,0.5c0.1,1.1,0.2,2.2,0.4,3.3c0.1,1,0.4,1.9,0.8,2.8
	c0.4,0.9,1.3,1.3,2.2,1c1.6-0.4,3-1.2,4.3-2.3c1.1-0.8,2.1-1.7,3.2-2.5C277.7,240.6,278.4,240.3,279.2,240.1z"/>
<path class="st0" d="M253.6,273.6c-0.2,0.4-0.5,0.8-0.9,1c-4.3,3.4-9.2,6-14.4,7.7c-1.8,0.6-3.7,0.9-5.6,0.8c-0.5,0-0.9-0.1-1.4-0.3
	c-0.5-0.2-0.6-0.4-0.5-1c0.2-1.3,0.7-2.6,1.3-3.8c1.3-2.3,2.8-4.4,4.7-6.2c2.1-2.2,4.4-4.2,6.9-5.9c0.7-0.4,1.5-0.8,2.2-1.1
	c0.1,0,0.2,0,0.3,0.1c0.1,0.1,0.1,0.2,0.1,0.3c-0.2,0.4-0.4,0.7-0.6,1.1c-1,1.7-1.7,3.6-2,5.5c-0.1,0.1-0.1,0.3-0.1,0.5
	c0.1,1.9,0.2,2.4,2.2,2.4c1.8,0,3.6-0.3,5.3-0.8c0.6-0.1,1.1-0.3,1.7-0.4C253.1,273.4,253.4,273.4,253.6,273.6z"/>
<path class="st0" d="M26.4,97.7c0.3,0.4,0,0.8-0.1,1.1c-0.4,1-0.8,2-1.3,3c-0.7,1.4-1.4,2.8-2.2,4.1c-1.8,3.2-3.3,6.5-4.5,9.9
	c-1.5,4.1-2.8,8.3-3.7,12.5c-0.6,3.2-1,6.5-1.1,9.7c0,1-0.1,2.1-0.3,3.1c-0.4,2.2-1.3,4.2-2.7,5.9c-0.5-0.3-0.9-0.7-1-1.2
	c-0.8-1.6-1.4-3.3-1.8-5.1c-0.2-1.2-0.1-2.5,0.2-3.7c0.7-3,1.5-6,2.6-8.9c2.5-7.4,5.8-14.6,9.6-21.5c1.3-2.4,2.8-4.8,4.4-7
	C25.1,98.9,25.7,98.2,26.4,97.7z M11.9,140.1c0-0.3,0-0.5-0.1-0.8c-0.2-0.5-0.6-0.9-1.1-0.9c-0.5,0.1-0.9,0.5-1,1.1
	c0,0.2,0,0.3,0,0.5c0.1,0.6,0.4,1.2,0.8,1.6c0.2,0.2,0.6,0.2,0.8,0C11.8,141.2,12,140.6,11.9,140.1z"/>
<path class="st0" d="M200.2,265.1c-1.4,0.6-2.8,0.9-4.2,1.1c-1.8,0.4-3.7,0.5-5.5,0.4c-1.1-0.1-2.2-0.3-3.3-0.6
	c-0.7-0.2-1.5-0.6-2.1-1.1c-1.8-1.3-2.5-3.8-1.5-5.8c0.6-1.3,1.4-2.5,2.4-3.5c1.8-1.8,3.8-3.5,6-4.8c0.1,0,0.2-0.1,0.3-0.1
	c0.1,0.5,0.2,0.9,0.5,1.3c0.6,1,1.2,2.1,1.7,3.1c1.6,3.2,3.4,6.2,5.4,9.2C200.1,264.5,200.2,264.8,200.2,265.1z"/>
<path class="st0" d="M269.4,84c-0.1-0.1-0.2-0.2-0.3-0.4c-3.7-3.6-7.1-7.5-10.2-11.7c-1.4-1.7-2.6-3.5-3.7-5.4
	c-0.2-0.4-0.4-0.8-0.6-1.3c-0.1-0.3,0-0.5,0.3-0.5c2.8,0.3,5.6,1,8.3,2c2.3,1,4.1,3,4.9,5.4c0.4,1,0.7,2,0.9,3
	c0.8,2.9,2.2,5.5,3.9,7.9c1.3,1.8,3,3.4,5,4.6c0.8,0.7,1.5,1.3,2.3,2.1c0.3,0.3,0.7,0.5,0.6,1c-0.8,0.1-1.7-0.1-2.4-0.5
	c-2.3-0.9-4.4-2.2-6.2-3.8C271.2,85.6,270.3,84.8,269.4,84z"/>
<path class="st0" d="M229.6,275.5c0,0.4-0.2,0.9-0.5,1.2l-3,4.6c-0.5,0.8-0.5,1,0.1,1.8c0.3,0.4,0.7,0.8,1.1,1.1
	c0.5,0.5,1.1,0.8,1.8,0.8c0.8,0,1.6,0,2.4,0.2c0.5,0.1,0.9,0.1,1.4,0c1.2-0.2,2.4-0.2,3.6-0.1c0.1,0.2,0,0.4-0.2,0.5c0,0,0,0-0.1,0
	c-1.1,0.5-2.3,1.1-3.5,1.5c-2.9,1.1-5.9,2-8.9,2.7c-2.6,0.7-5.3,1-8,1.1c-0.7,0-1.5-0.2-2.2-0.4c-0.9-0.2-1.4-1.1-1.2-1.9
	c0-0.1,0.1-0.2,0.1-0.3c0.5-1.2,1.2-2.3,2.1-3.2c3.1-3.3,6.8-6,10.9-8C226.8,276.5,228.1,276,229.6,275.5z"/>
<path class="st0" d="M206.6,20.1l2.8,0.5c2.2,0.7,4.2,2,5.9,3.6c0.8,0.8,1.6,1.6,2.4,2.5c0.8,0.8,1.6,1.8,2.4,2.6
	c2.6,2.8,5.8,5,9.3,6.6c1.1,0.5,2.2,1,3.2,1.6l0.5,0.4c-0.2,0.4-0.6,0.2-0.8,0.2c-0.3,0-0.5,0-0.8-0.1c-1.9-0.3-3.9-0.7-5.7-1.4
	c-4.1-1.5-7.9-3.3-11.6-5.6c-4.2-2.6-8.2-5.2-12.2-8.1c-0.1,0-0.2-0.1-0.3-0.1c-0.6-0.6-1.3-1.1-2-1.5V21l0.4-0.3
	C202.1,20.2,204.3,20,206.6,20.1z"/>
<path class="st0" d="M198.6,286.2c-0.8,0.9-1.9,1.5-3.1,1.7c-0.8,0.2-1.7,0.3-2.5,0.3c-0.5,0-1.1,0-1.6,0.2
	c-0.2-0.1-0.4-0.1-0.6-0.1c-3.5-0.2-7,0-10.4,0.6c-2.9,0.5-5.7,1.6-8.1,3.2c-0.9,0.3-1.8,0.6-2.6,1c-0.7,0-0.7,0-0.6-0.6
	c1.2-1.7,2.7-3,4.5-4.1c3-1.8,6.2-3.3,9.6-4.3c5.2-1.8,10.6-3.2,16-4.2c1.2-0.3,2.5-0.5,3.7-0.4c0.2,0.5-0.2,0.8-0.4,1.2
	c-1,1.7-2.2,3.3-3.4,4.9c-0.2,0.2-0.5,0.4-0.3,0.8h0.1C198.8,286.1,198.7,286.1,198.6,286.2z"/>
<path class="st0" d="M274.5,206.9c0.5,0,0.6,0.3,0.7,0.6c0.4,0.6,0.7,1.3,1,1.9c0.3,0.6,0.7,1.2,1,1.8c0.3,0.4,0.6,0.7,0.9,1
	c1.1,1.2,3,1.2,4.2,0.1c0.1-0.1,0.1-0.1,0.2-0.2c0.6-0.6,1.2-1.3,1.7-2.1c0.7-0.9,1.3-1.9,1.9-2.8c0.3-0.3,0.4-1,0.9-0.9
	c0.5,0.1,0.2,0.7,0.2,1.1c0,1.2-0.1,2.5-0.4,3.7c-0.4,2.5-1.1,5-2.1,7.3c-1.1,2.7-2.9,5.1-5,7.1l-0.1,0.1c-0.5,0.4-0.6,0.4-1.1,0
	c-1.9-1.7-3.3-3.9-3.9-6.3c-0.4-1.6-0.7-3.3-0.7-4.9c0-1.7,0-3.4,0-5.1c0-0.4,0-0.7,0.1-1.1C274.3,207.8,274.4,207.3,274.5,206.9z"
	/>
<path class="st0" d="M277,163.1c-0.3,1.5-0.6,3.1-1,4.6c-0.4,1.4-0.9,2.8-1.5,4.2c-0.2,0.3-0.2,0.6-0.1,0.9c-0.5,0.3-0.7,0.9-1,1.4
	c-0.8,1.5-1.8,2.8-3.1,3.9c-2.8,2.5-7.2,2.3-9.7-0.6c0,0,0,0,0,0c-0.1-0.1-0.2-0.3-0.2-0.4c0.2-0.1,0.4-0.4,0.4-0.6
	c0-0.4,0-0.7,0-1.1c0-2.9,0-5.8,0-8.7c0.5,0.6,1,1.3,1.6,1.9c1.4,1.4,3.3,2.1,5.2,2c1.6-0.1,3.1-0.9,4-2.1c0.7-0.5,1.2-1.1,1.5-1.9
	c0.7-0.9,1.2-1.9,1.6-2.9c0.5-1,1-2.1,1.6-3.1c0.1-0.2,0.2-0.4,0.4-0.4s0.2,0.3,0.2,0.5C277,161.4,277,162.2,277,163.1z"/>
<path class="st0" d="M285.5,110.6c0,0.5,0.1,1,0.2,1.5c-0.4,0.2-0.8,0.4-1.1,0.8c-0.3,0.3-0.6,0.5-1,0.5c-0.4-0.4-0.7-0.8-0.9-1.3
	c-0.3-0.4-0.4-0.9-0.8-1.2c0-0.2-0.1-0.3-0.1-0.5c-1.3-2.4-2.5-4.9-3.8-7.3l-1.7-3.8c-0.3-1.3-0.8-2.6-1.3-3.8
	c-0.3-1.3-0.5-2.5-0.8-3.8c-0.3-1.2-0.1-1.4,1.3-1l1.2,0.4l3.9,1.3c1,0.4,1.9,0.8,2.9,1.2c0.6,0.1,1,0.7,0.9,1.3c0,2,0,4.1,0,6.1
	c0,0.7,0.1,1.3,0.1,2c0.1,1.9,0.3,3.9,0.6,5.8C285,109.5,285.2,110.1,285.5,110.6z"/>
<path class="st0" d="M200.2,265.1c0-0.3-0.2-0.6-0.3-0.8c-2-3-3.8-6-5.4-9.2c-0.5-1.1-1.2-2.1-1.7-3.1c-0.3-0.4-0.4-0.8-0.5-1.3
	c0.1-0.1,0.3-0.3,0.5-0.4c2.5-1.6,5.1-3,7.7-4.2c0.5-0.2,1-0.4,1.5-0.6c0.1,0,0.3-0.1,0.4,0.1c0.1,0.1,0.1,0.3,0,0.4
	c-0.3,0.6-0.5,1.1-0.8,1.7c-0.6,1-1.2,2-1.7,3c-0.7,1.3-1.3,2.6-1.6,4c-0.1,0.5-0.2,1-0.2,1.5c0,0.8,0.1,1,0.8,1
	c1.3,0.1,2.5,0.3,3.8,0.4c3.1,0.1,6.1,0.2,9.1,0.3c0.2,0,0.3,0,0.5,0c0.2,0,0.6-0.1,0.7,0.2c0.1,0.3-0.2,0.5-0.3,0.7
	c-0.4,0.5-0.9,0.9-1.4,1.3c-0.8,0.6-1.5,1.1-2.4,1.6c-2.5,1.4-5.2,2.5-8,3.4C200.6,265,200.4,265,200.2,265.1z"/>
<path class="st0" d="M97.8,44.5c0-4,3.3-7.3,7.3-7.3c0.1,0,0.1,0,0.2,0c2.7,0.1,5,1.7,5.9,4.2c0.7,2,1,4.1,0.7,6.1
	c-0.4,3.5-1.2,7-2.2,10.4c-0.5,2-1.1,4-1.6,6c-0.7,2.9-1,5.9-0.8,9c0.1,1.1,0.2,2.3,0.4,3.4c0.1,0.7,0.1,1.4-0.1,2.1
	c-0.4,0-0.4-0.3-0.6-0.5c-1.7-2.7-2.6-5.7-2.6-8.9c0-3.1,0.5-6.1,1.5-9c0.7-2.4,1.4-4.8,2.2-7.1c0.6-2,1.1-4,1.3-6.1
	c0.2-1.3,0.1-2.6-0.2-3.9c-0.5-2.4-2.3-4.2-4.7-4.8c-0.4-0.1-0.7-0.1-1.1,0.1c-1.4,0.8-2.6,1.9-3.5,3.3
	C99.4,42.6,98.6,43.6,97.8,44.5z"/>
<path class="st0" d="M276.7,193.6c0.4,0,0.6,0.3,0.8,0.6c0.5,0.8,1,1.5,1.6,2.1c0.4,0.3,0.7,0.6,1.1,0.9c0.9,0.7,2.1,0.8,3.1,0.3
	c1.2-0.5,2.3-1.4,2.9-2.6c0.5-0.9,0.9-1.9,1.1-2.9c0.2-0.8,0.5-1.6,0.8-2.4c0,0,0.2-0.1,0.2-0.1c0.1,0,0.2,0,0.2,0.2
	c0.2,2.1,0.1,4.2-0.3,6.3c-0.6,2.7-1.4,5.3-2.4,7.8c-0.6,1.4-1.4,2.7-2.5,3.8c-0.7,0.7-1.4,1.4-2.2,2c-0.7,0.5-0.9,0.5-1.5-0.1
	c-0.6-0.6-1.1-1.3-1.4-2c-0.8-1.6-1.5-3.3-1.8-5.1c-0.6-2.4-0.9-4.9-0.8-7.4C275.8,194.4,276.2,193.8,276.7,193.6z"/>
<path class="st0" d="M8.7,196.7c0.3,0,0.5,0.1,0.7,0.3c2.4,1.5,4.6,3.2,6.6,5.2c1.4,1.4,2.6,3,3.6,4.7c2,3.4,3.7,6.9,5.2,10.4
	c0.5,1.1,0.9,2.2,1.1,3.4c0,0.3-0.1,0.5-0.4,0.5c-1.9,0-3.8-0.5-5.4-1.5c-1.5-0.9-2.5-2.4-3-4c-0.4-1.4-0.8-2.9-1-4.4
	c-0.3-1.7-0.8-3.5-1.3-5.1c-0.8-2.5-2.1-4.7-3.9-6.5c-0.8-0.8-1.6-1.7-2.2-2.6c-0.1-0.2-0.2-0.4,0-0.5L8.7,196.7z"/>
<path class="st0" d="M263.7,195.5c-2.5,1.7-5.9,1.1-7.6-1.4c0-0.1-0.1-0.1-0.1-0.2c-1-1.5-1.6-3.2-1.8-4.9c-0.4-3.2-0.1-6.5,0.8-9.7
	c0.3-1,0.6-1.9,1-2.9c0.5-0.1,0.6,0.2,0.7,0.4c0.5,1,0.8,2,1.1,3.1c0.3,1.4,1,2.6,1.9,3.7c0.7,0.7,1.4,1.3,2.2,1.8
	c0.2,1.7,0.4,3.4,0.8,5C262.9,192.2,263.3,193.8,263.7,195.5z"/>
<path class="st0" d="M79.4,93.1c-0.1-0.5,0-0.9,0.3-1.3c0.6-1.2,1.2-2.3,1.9-3.4C83.7,84.9,85,81,85.4,77c0.3-2,0.6-3.9,0.9-5.9
	c0-0.1,0-0.2,0-0.3c0.3-2.6,2.3-4.8,4.9-5.3l0.6-0.2c0.7-0.2,1.4-0.4,2.2-0.4c0.4,0.6,0.8,1.2,0.9,1.9c0.5,1.3,1,2.7,1.5,4.1
	c-0.3,0.2-0.5,0-0.7-0.1l-2.3-1.4c-0.3-0.2-0.6-0.3-0.9-0.3c-0.6,0.7-1,1.5-1.3,2.4c-0.7,1.7-1.4,3.4-1.9,5.2c-0.6,2-1.2,3.9-2,5.9
	c-1.2,3.3-3.1,6.3-5.7,8.7C80.9,92,80.2,92.6,79.4,93.1z"/>
<path class="st0" d="M172.3,292c2.4-1.6,5.2-2.7,8.1-3.2c3.5-0.5,7-0.7,10.4-0.6c0.2,0,0.4,0.1,0.6,0.1c-0.8,0.8-1.7,1.5-2.6,2
	c-1,0.7-1.3,0.9-0.6,2.3c0.5,1,1.3,1.8,2.3,2.3c0.9,0.4,1.7,0.8,2.6,1.1c0.2,0.1,0.5,0.2,0.7,0.4c0.1,0.1,0.1,0.2,0.1,0.3
	c0,0.1-0.1,0.1-0.2,0.2c-0.2,0-0.4,0-0.6,0c-1.9,0-3.8,0.1-5.7-0.1c-4-0.2-7.9-1.1-11.6-2.6c-1.1-0.5-2.2-1.1-3.2-1.8
	C172.4,292.4,172.4,292.1,172.3,292z"/>
<path class="st0" d="M190.3,278.1H187c-0.1,0-0.2,0-0.2-0.2c0-0.2,0-0.2,0-0.3c0.1-0.2,0.3-0.3,0.4-0.4c0.7-0.5,1.3-1.1,2-1.6
	c2.4-1.6,4.6-3.5,6.6-5.5c0.8-0.8,1.8-1.3,2.9-1.4c2.3-0.2,4.6-0.5,6.9-0.8c0.5-0.1,1,0,1.6-0.1c0.2,0,0.3,0.2,0.2,0.3
	c0,0,0,0.1-0.1,0.1c-0.1,0.1-0.2,0.2-0.3,0.4c-2.1,2.4-4.2,4.7-6.2,7.1c-0.6,0.7-1.4,1.2-2.4,1.5c-1.9,0.5-3.8,0.8-5.8,0.9
	C191.9,278.1,191.1,278.1,190.3,278.1L190.3,278.1z"/>
<path class="st0" d="M212.7,266.2c-0.1-0.4,0.2-0.6,0.3-0.8c1.8-2.8,3.6-5.6,5.3-8.5c0.6-1,1.6-1.7,2.8-1.9c0.5-0.1,0.9-0.2,1.4-0.2
	c2.3-0.2,4.5-0.7,6.6-1.5c0.5-0.3,1.1-0.4,1.6-0.4c0.2,0.4-0.1,0.6-0.3,0.8c-2,2.6-3.9,5.4-5.7,8.2c-0.6,1-1.6,1.7-2.7,2.1
	c-2.8,0.8-5.6,1.5-8.4,2.3C213.4,266.4,213,266.4,212.7,266.2z"/>
<path class="st0" d="M141.9,293.4c-0.6,0-1.1,0-1.7,0.2c-0.5,0.2-1,0.2-1.6,0.2c-0.1-0.3,0.2-0.4,0.4-0.6c2.7-1.9,5.8-3.2,9-3.8
	l2.4-0.6c0.4,0,0.8,0,1.3-0.1c3.6-0.6,7.2-0.9,10.9-0.8c2.2,0,4.4,0.3,6.5,0.9l0.3,0.2c0.2,0.1,0.4,0.3,0.1,0.5s-0.9,0.6-1.4,0.9
	s-0.6,0.5-1,0.7c-1.3,0.9-2.6,1.6-4,2.3c-2.5,0-4.9-0.4-7.3-1c-2.7-0.7-5.5-0.9-8.2-0.5c-0.3-0.1-0.6,0-0.9,0.1l-4.3,1.1
	C142.2,293.1,142,293.2,141.9,293.4z"/>
<path class="st0" d="M247.2,44.4c0.8,0.7,1.4,1.6,1.8,2.6c0.6,1.1,1.1,2.3,1.6,3.4c1,2,2.2,3.9,3.7,5.6c1.3,1.5,2.9,2.8,4.6,3.8
	c1.3,0.8,2.7,1.6,4,2.5c0.5,0.3,0.9,0.6,1.2,1.1c-0.7,0.1-1.3,0.1-2-0.1c-1.8-0.4-3.6-1-5.2-1.9c-2.6-1.4-5.1-3-7.4-4.8
	c-2.9-2.3-5.7-4.7-8.3-7.4c0.5,0,1-0.2,1.4-0.5c1.1-1,2.3-1.9,3.5-2.9C246.8,45.5,247.1,45,247.2,44.4z"/>
<path class="st0" d="M20.1,221.8c0.5,0,1,0.2,1.5,0.4c1.1,0.5,2.2,1.1,3.2,1.7c3.5,2.3,6.6,5,9.3,8.3c2.4,3,4.9,6,7.4,9
	c0.3,0.4,0.6,0.7,0.9,1.1c0.3,0.4,0.1,0.5-0.2,0.6c-1.8,1.2-4.1,1.2-5.8-0.1c-0.8-0.6-1.6-1.3-2.1-2.1c-0.6-0.8-1.2-1.7-1.7-2.6
	c-0.7-1.2-1.3-2.5-1.9-3.8c-0.6-1.3-1.2-2.4-1.8-3.6c-1.2-2.4-3-4.4-5.2-5.9c-1.1-0.7-2.1-1.5-3-2.4
	C20.4,222.4,20.1,222.2,20.1,221.8z"/>
<path class="st0" d="M121.4,273.6c0.6,0,1.1,0.2,1.7,0.4c4.4,1.6,9,2.6,13.6,3.2c1,0.1,2,0.2,3,0.2c0.3,0,0.5,0,0.7-0.3
	c2.2,0.8,4.4,1.6,6.5,2.5c1.1,0.4,2.2,1,3.2,1.6c0.1,0.1,0.1,0.1,0.2,0.2c0,0.2-0.1,0.3-0.3,0.3c-0.6,0-1.1,0-1.7-0.2
	c-0.4-0.1-0.9-0.3-1.3,0.2c-0.2-0.1-0.4-0.2-0.5-0.3c-0.9-0.6-1.8-1.1-2.7-1.6c-1.6-0.8-3.3-1.1-5.1-0.9c-1.2,0.1-2.4,0.4-3.6,0.6
	c-0.8,0.2-1.5,0.4-2.2,0.7c-0.5,0.2-0.5,0.5-0.2,0.8c1.5,1.5,3.2,2.7,5,3.7c1.2,0.6,2.5,0.9,3.8,0.9h1.4c0,0.4,0.3,0.6,0.5,0.9
	c0.8,0.6,1.5,1.3,2.2,2c0.1,0.1,0.2,0.2,0.2,0.4c0,0.3-0.3,0.2-0.5,0.2c-0.7,0-1.4-0.2-2.1-0.5c-0.6-0.3-1.3-0.4-2-0.5l0,0
	c0-0.1-0.1-0.2-0.3-0.1l-3.2-1.4c-0.1-0.3-0.4-0.4-0.7-0.4l0,0c0-0.4-0.3-0.5-0.6-0.7c-3.5-2-6.8-4.4-9.9-7.1
	c-1.6-1.4-3.2-2.9-4.7-4.3C121.7,274.3,121.3,274.1,121.4,273.6z"/>
<path class="st0" d="M45.9,245.4c0.9,0,1.8,0.2,2.6,0.5c1.8,0.5,3.5,1.3,5.1,2.2c4.3,2.4,8.2,5.5,11.6,9.1c0.8,0.9,1.6,1.8,2.2,2.8
	c0.4,0.6,0.7,1.2,0.8,1.9c-0.2,0.1-0.4,0.2-0.6,0.2c-1.7,0.2-3.4,0.2-5-0.1c-1.4-0.3-2.6-1.1-3.4-2.3c-0.4-0.6-0.8-1.3-1.2-2
	c-0.6-1-1.2-2.1-1.8-3.1c-1.6-2.7-4-5-6.8-6.5c-0.6-0.4-1.3-0.7-1.9-1.1C46.8,246.6,46.3,246,45.9,245.4z"/>
<path class="st0" d="M270.1,70.3c0.9,0.9,1.5,1.5,2.1,2.1c1,1,2.1,1.8,3.3,2.6c1.4,0.9,3.2,1.2,4.8,0.9c1.1-0.3,2.1-1.1,2.6-2.1
	c0.3-0.4,0.5-0.9,0.7-1.3c0.1-0.1,0.2-0.3,0.4-0.2c0.2,0.1,0.2,0.2,0.2,0.4c0,1.2-0.1,2.4-0.2,3.6c-0.2,1.6-0.6,3.3-1.3,4.8
	c-0.2,0.4-0.4,0.8-0.7,1.2c-1.5,2.7-5.2,2.3-6.8,0.8c-1.3-1.3-2.4-2.9-3.1-4.6c-0.8-1.8-1.5-3.8-2-5.7
	C269.9,71.9,269.9,71.1,270.1,70.3z"/>
<path class="st0" d="M88.4,278c0-0.3,0.1-0.4,0.3-0.4c3-0.3,6.1-0.7,9.1-0.7c3-0.1,5.9,0.4,8.7,1.5l7.5,3l2.5,1
	c0.6,0.2,1,0.7,0.9,1.3c0,0.5,0,0.7-0.5,0.8c-2,0.6-4.1,0.8-6.1,0.4c-1.9-0.4-3.8-1-5.5-1.9c-1.5-0.7-3-1.5-4.5-2.2
	c-2.5-1.3-5.2-2-8-2.1c-0.9,0-1.8-0.2-2.6-0.3C89.5,278.2,89,278.1,88.4,278z"/>
<path class="st0" d="M137.8,286.9l3.2,1.4c0.1,0.1,0.2,0.1,0.3,0.1l0,0c0.2,0.2,0.4,0.5,0,0.8c-1.9,1.5-4.2,2.4-6.5,2.6
	c-0.8,0-1.6-0.1-2.3-0.4c-1-0.4-1.9-0.8-2.9-1.2c-2.6-1.3-5.4-2.3-8.3-2.8c-1.5-0.2-3-0.4-4.6-0.5c-0.8,0-1.7-0.1-2.5-0.3
	c0-0.4,0.4-0.4,0.7-0.5c1.4-0.5,2.9-0.9,4.4-1c1.9-0.2,3.9-0.2,5.8-0.3l2.3,0.2c3.1,0.3,6.1,0.8,9.1,1.7c0.2,0,0.4,0,0.6,0l0,0
	C137.2,286.9,137.5,286.8,137.8,286.9z"/>
<path class="st0" d="M278.8,264.9c0.1-2.3,0.6-4.5,1.6-6.6c1.4-3.3,3.1-6.5,5-9.5c1.3-2.2,2.7-4.2,4.2-6.2c0.1-0.2,0.3-0.4,0.5-0.6
	c0.3-0.3,0.5-0.8,0.9-0.7c0.4,0.1,0.4,0.7,0.5,1.2c0.4,1.6,0.6,3.2,0.7,4.8c0.1,1.3-0.4,2.5-1.3,3.4c-0.6,0.7-1.3,1.3-1.9,1.9l-3,3
	c-1.4,1.4-2.7,3-3.7,4.6c-0.7,1.1-1.2,2.2-1.5,3.4c-0.3,0.9-0.7,1.9-1,2.8c-0.1,0.2-0.2,0.4-0.4,0.5c0,0-0.1,0.1-0.1,0
	c0-0.1-0.2-0.1-0.2-0.2C278.9,266,278.8,265.5,278.8,264.9z"/>
<path class="st0" d="M267.5,99.1c0,0,0-0.1,0-0.1c-2.4-3.2-2.3-6.8-1.9-10.4c0-0.1,0.1-0.2,0.2-0.3c1.7,1,3,2.4,4.5,3.5
	c1.2,0.9,2.2,2.2,2.8,3.6c0.2,1.4,0.5,2.7,1,4.1c0.3,1.8,0.7,3.6,1.3,5.3l0.4,2.1c0.1,0.5,0.2,0.9,0.3,1.3c0.1,0.4,0.1,0.8,0.2,1.2
	c0.1,0.4,0.2,0.9,0.1,1.3c-0.5-0.2-0.7-0.6-1-0.8c-0.2-0.6-0.6-1.1-1-1.5c-0.3-0.9-0.9-1.8-1.6-2.5
	C271.3,103.4,269.4,101.2,267.5,99.1z M271,97.2c-0.3-1.1-0.8-2.1-1.6-2.9c0,0-0.1,0-0.1-0.1c-0.2-0.2-0.5-0.1-0.7,0.1
	c-0.1,0.1-0.1,0.2-0.1,0.3c-0.1,1.3,0.5,2.6,1.6,3.4c0.2,0.1,0.4,0.2,0.6,0.1C270.9,97.9,270.9,97.7,271,97.2L271,97.2z"/>
<path class="st0" d="M257.6,209.5c-2.2,2.3-4.9,3.9-8,4.8c-0.6,0.2-0.7,0.1-0.9-0.5c-1.5-4.4-1.7-9.2-0.5-13.6c0.8-3.1,2-6,3-9
	c0.1-0.1,0.1-0.2,0.2-0.3c0.5,0.5,0.7,1.2,0.7,1.8c0.1,0.6,0.1,1.2,0.1,1.9c-0.1,1.9,0.6,3.8,1.9,5.3c0,0.6,0,1.2,0.2,1.8
	c0.2,0.4,0.3,0.8,0.4,1.2c0.1,0.5-0.3,1-0.8,0.8c-0.9-0.3-1.9-0.1-2.7,0.5c-1.6,0.8-2.3,2.7-1.6,4.4c0.2,0.3,0.4,0.7,0.7,0.9
	c0.8,1,2.1,1.3,3.3,1c0.9-0.2,1.7-0.7,2.3-1.3c0.5-0.5,0.7-0.4,1.3-0.1L257.6,209.5z"/>
<path class="st0" d="M269.7,204.6c0,1,0.1,2,0.1,3c0,1.4,0,2.9,0,4.3c0,0.5-0.1,1-0.1,1.6c-0.1,0.8-0.5,1.6-1.2,2.1
	c-1.2,0.9-2.3,1.8-3.5,2.7c-1.3,0.9-2.4,2-3.5,3.2c-0.4,0.4-0.7,0.7-1.1,1.1c-0.2,0.2-0.4,0.4-0.7,0.3c-0.2-0.1-0.1-0.5-0.1-0.8
	c0.8-3.4,1.8-6.7,2.8-10c0.2-0.6,0.5-1.2,0.9-1.8c1.5-2,3.2-3.8,5.2-5.3C268.9,204.6,269.3,204.4,269.7,204.6z"/>
<path class="st0" d="M274.4,172.8c-0.1-0.3,0-0.6,0.1-0.9c0.6-1.4,1.1-2.8,1.5-4.2c0.8,0.1,1.7,0,2.5-0.2c1.3-0.4,2.3-1.4,2.5-2.7
	c0.2-0.8,0.4-1.7,0.3-2.6c0-0.4-0.2-0.9,0.3-1.3c0.2,0.1,0.4,0.4,0.3,0.7c0,0.9,0.2,1.8,0.4,2.7c0.1,1.2,0.6,2.3,1.3,3.3
	c0,1.4,0,2.8,0,4.2c-0.1,2.3-0.7,4.6-1.9,6.6l-0.9,0.3c-2.3-1.2-4.4-2.8-6-4.8C274.6,173.5,274.4,173.2,274.4,172.8z"/>
<path class="st0" d="M66.3,265.4c0.8-0.2,1.6-0.3,2.4-0.2c2.5,0.1,5,0.5,7.5,1.1c4.1,1.1,8,2.6,11.8,4.6c1.1,0.6,2.2,1.3,3.2,2.1
	c0.4,0.3,0.7,0.6,1,1c0.1,0.1,0.1,0.3,0,0.4c0,0-0.1,0.1-0.1,0.1c-1.9,0.7-4,1.1-6,1c-1.1-0.1-2.1-0.4-2.9-1.1
	c-0.6-0.5-1.2-1-1.8-1.5c-0.9-0.8-1.8-1.6-2.7-2.4c-2.3-1.9-5-3.2-7.8-3.8c-1.1-0.2-2.1-0.6-3.2-0.9C67,265.9,66.6,265.7,66.3,265.4
	z"/>
<path class="st0" d="M160.9,283.8c-0.3-0.1-0.6-0.3-0.8-0.5c-0.1-0.1-0.2-0.3-0.1-0.4c0,0,0.1-0.1,0.1-0.1c0.5-0.3,0.9-0.6,1.4-0.9
	c2.1-1.1,4.3-2.1,6.6-3c0.8-0.3,1.7-0.5,2.6-0.5c2.3-0.1,4.5,0,6.8,0.2c0.9,0.1,1.9,0.1,2.8,0.1c0.2,0,0.4,0,0.5,0.3
	c0,0.2-0.1,0.4-0.2,0.5c-0.3,0.2-0.6,0.4-0.9,0.6c-2.3,1.2-4.4,2.6-6.6,3.9c-0.9,0.6-1.9,1.1-2.9,1.5c-1.4,0.3-2.9,0.3-4.3-0.2
	C164.1,285,162.5,284.4,160.9,283.8z M170.1,282.6c0-0.7-0.6-1.3-1.3-1.3c0,0-0.1,0-0.1,0c-0.9,0-1.5,0.6-1.4,1.6
	c-0.1,0.7,0.4,1.4,1.1,1.5c0.1,0,0.1,0,0.2,0C169.5,284.2,170.1,283.5,170.1,282.6z"/>
<path class="st0" d="M41,110c0.1,0.4,0.1,0.9,0,1.3c-1.1,4.2-2.6,8.3-4.7,12.2c-0.7,1.4-1.7,2.8-2.8,3.9c-0.3,0.4-0.8,0.7-1.2,0.9
	c-0.2,0.1-0.4,0-0.4-0.1c0,0,0-0.1,0-0.1c0-0.3-0.1-0.6-0.1-0.9c-0.2-3.9-0.1-7.8,0.3-11.7c0.3-2.8,0.9-5.6,1.9-8.3
	c0.1-0.2,0.2-0.5,0.3-0.7c0-0.2,0.2-0.3,0.3-0.3c0.2,0,0.2,0.2,0.2,0.3c0.1,1.3,0.2,2.7,0.2,4c0,2.2,0,4.5,0,6.7c0,0.6,0,1.1,0,1.7
	c0,0.2,0.1,0.3,0.3,0.3c0.1,0,0.3,0,0.4,0c0.2-0.1,0.3-0.3,0.4-0.5c0.5-0.8,1.1-1.5,1.6-2.3c1-1.8,1.9-3.6,2.9-5.4
	C40.6,110.8,40.7,110.5,41,110z"/>
<path class="st0" d="M160.9,283.8c1.6,0.7,3.3,1.2,4.9,1.7c1.4,0.5,2.9,0.5,4.3,0.2c0.4,0.3,0.9,0.5,1.4,0.5
	c0.4,0.1,0.9,0.2,1.3,0.4c0.1,0.1,0.2,0.2,0.2,0.3c0,0.2-0.1,0.3-0.3,0.3c-0.8,0.3-1.6,0.5-2.4,0.8c-0.5,0.2-1,0.1-1.4,0.6
	c-2.1-0.6-4.3-0.9-6.5-0.9c-3.6,0-7.3,0.2-10.9,0.8c-0.4,0.1-0.8,0.1-1.3,0.1c-1-0.9-2.3-1.4-3.3-2.3c-0.3-0.2-0.6-0.4-0.6-0.8
	c0.3-0.4,0.7-0.3,1.1-0.4c0.9-0.1,1.7-0.3,2.5-0.8c0.3-0.1,0.4-0.4,0.4-0.7c0.8-0.1,1.7-0.2,2.5-0.1c2-0.1,3.9,0,5.8,0.3
	C159.6,284.3,160.3,284.2,160.9,283.8z"/>
<path class="st0" d="M49.2,240.1c-0.6-0.1-1.2-0.4-1.6-0.8c-2.2-1.6-4.4-3-6.7-4.4c-1.4-0.8-2.4-2-2.9-3.6c-0.5-1.7-1.1-3.5-1.6-5.2
	c-0.1-0.5-0.2-0.9-0.2-1.4c0-0.1,0.1-0.3,0.3-0.3c0,0,0,0,0.1,0c0.2,0,0.3,0.1,0.4,0.2c2.5,1.3,5,2.8,7.3,4.3c0.8,0.5,1.4,1.2,1.7,2
	c1.3,2.8,2.4,5.6,3.3,8.6C49.3,239.7,49.3,239.9,49.2,240.1z"/>
<path class="st0" d="M150.7,283.8c0,0.3-0.2,0.6-0.4,0.7c-0.8,0.4-1.6,0.7-2.5,0.8c-0.4,0-0.9,0-1.1,0.4c-0.6-0.1-1.2-0.1-1.8,0
	l-2,0.3h-1.4c-1.3,0-2.6-0.3-3.8-0.9c-1.8-1-3.5-2.3-5-3.7c-0.4-0.3-0.3-0.6,0.2-0.8c0.7-0.3,1.5-0.5,2.2-0.7
	c1.2-0.3,2.4-0.5,3.6-0.6c1.7-0.2,3.5,0.1,5.1,0.9c0.9,0.5,1.8,1,2.7,1.6c0.2,0.1,0.4,0.2,0.5,0.3
	C148.1,282.7,149.4,283.3,150.7,283.8z"/>
<path class="st0" d="M30.6,215c-0.5-0.1-0.9-0.3-1.2-0.6c-2.5-2.1-4.9-4.4-7.1-6.9c-0.5-0.6-0.9-1.3-1.1-2c-0.6-2.4-1.1-4.9-1.3-7.3
	c0-0.2-0.1-0.4,0.1-0.5c0.2-0.1,0.4,0,0.6,0.2c0.5,0.4,1,0.8,1.4,1.3c1.3,1.2,2.5,2.4,3.7,3.6c0.9,0.9,1.8,1.7,2.8,2.5
	c0.6,0.4,0.9,1,1,1.7c0.4,2.5,0.7,4.9,1,7.4C30.6,214.5,30.6,214.7,30.6,215z"/>
<path class="st0" d="M239.7,247c-0.2-0.3-0.2-0.6,0-0.9c0.9-2.6,1.9-5.1,3-7.5c0.5-1.1,1.2-2,2.2-2.6c1.9-1.3,3.8-2.6,5.9-3.7
	c0.3-0.3,0.7-0.4,1.1-0.4c0.1,0.3,0.1,0.7,0,1.1c-0.7,2.6-1.6,5.2-2.5,7.7c-0.3,0.9-0.9,1.6-1.8,2.1c-2.4,1.3-4.8,2.7-7.3,4.1
	C240.1,246.8,239.9,246.9,239.7,247z"/>
<path class="st0" d="M257.6,209.5l-0.5-0.4c-0.6-0.4-0.8-0.4-1.3,0.1c-0.6,0.6-1.4,1.1-2.3,1.3c-1.2,0.3-2.5-0.1-3.3-1
	c-1.3-1.3-1.3-3.4,0-4.6c0.3-0.3,0.6-0.5,0.9-0.7c0.8-0.6,1.8-0.8,2.7-0.5c0.5,0.2,0.9-0.3,0.8-0.8c-0.1-0.4-0.2-0.8-0.4-1.2
	c-0.2-0.6-0.2-1.2-0.2-1.8c0.8,0.6,1.5,1.1,2.4,1.5c1.6,0.9,3.5,0.8,4.9-0.3c0.6-0.5,1.2-1,1.8-1.5c0.6-0.6,1.2-1.2,1.8-1.8
	c0.3-0.3,0.6-0.7,1.1-0.8c0.2,0.3,0,0.6-0.1,0.9c-0.7,1.7-1.6,3.4-2.6,4.9c-1.5,2.2-3.2,4.3-5.1,6.1
	C258,209.2,257.8,209.3,257.6,209.5z M251,207.2c0,1.1,0.8,2,1.8,2c0.1,0,0.2,0,0.3,0c1.1-0.1,2-1,2.1-2.1c0-1.1-0.9-1.9-1.9-1.9
	c0,0-0.1,0-0.1,0C252,205.2,251.1,206,251,207.2L251,207.2z"/>
<path class="st0" d="M102.9,16.1c0.3-3.5,1.4-6.8,3.3-9.8c1-1.4,2.3-2.5,3.7-3.3c3.3-2,6.5-4,9.9-5.8c1.3-0.7,2.7-1.4,4.1-2.1
	c0.2-0.2,0.5-0.2,0.7-0.1c0.1,0.3-0.1,0.5-0.2,0.7c-1,1.2-2,2.3-3.2,3.2c-2.5,2.3-5.2,4.3-8,6.4c-1.8,1.4-3.6,2.8-5.3,4.4
	c-0.7,0.6-1.3,1.2-1.9,1.9c-0.8,0.8-1.4,1.7-1.7,2.8c-0.2,0.6-0.4,1.1-0.8,1.5C103.3,16,103.1,16.1,102.9,16.1z M108.9,7l0.7-0.6
	c0.6-0.4,0.7-0.5,0.6-1.1c0-0.3-0.3-0.5-0.5-0.5c-0.4-0.1-0.8,0-1.2,0.3c-0.4,0.3-0.8,0.8-1,1.3c-0.2,0.4,0,0.8,0.4,1c0,0,0,0,0.1,0
	c0.2,0.1,0.5,0.1,0.8,0C108.9,7.4,108.9,7.2,108.9,7L108.9,7z"/>
<path class="st0" d="M281,119.4c0.2,0.5,0.4,0.9,0.7,1.4c1.5,2.5,2.3,5.3,2.5,8.1c0.1,3.1,0.4,6.2,0.3,9.3c0,0.1,0,0.2-0.1,0.3
	c-0.3,0.1-0.4-0.2-0.5-0.3c-1.7-3-3.2-6.1-4.5-9.2c-0.4-1.1-0.7-2.2-0.9-3.3c-0.1-0.7-0.2-1.3-0.3-2c0.1-1.2,0.1-2.5,0-3.7
	c0-1.2,0.1-2.4,0.3-3.6c0.5,0,0.6,0.6,1,0.8L281,119.4z"/>
<path class="st0" d="M280.8,178.6l0.9-0.3c0.3,1.3,0.2,2.7,0.7,4c0,0.5,0.1,0.9,0.2,1.4c0.3,1.1-0.1,2.2-0.9,3
	c-1.4,1.3-2.5,2.8-3.5,4.4c-0.7,0.7-1.3,1.6-1.5,2.5c-0.6,0.3-1,0.8-1,1.5c-0.5,0.2-0.6,0.7-0.9,1c-0.3,0.4-0.6,0.8-1,1.1
	c-0.4-0.2-0.2-0.6-0.2-0.8c0-0.3,0-0.6,0-0.9c0.3-3.1,1-6.2,2-9.1c0.1-0.3,0.2-0.7,0.2-1c0.7-1.1,1.3-2.2,1.8-3.4c0,0,0.1,0,0.1,0
	C278.7,180.7,279.7,179.6,280.8,178.6z"/>
<path class="st0" d="M263.7,195.5c-0.4-1.7-0.8-3.3-1.1-5c-0.4-1.6-0.7-3.3-0.8-5l0.8,0.2c1.9,0.6,4,0.3,5.7-0.9
	c1.1-0.7,2.1-1.6,2.9-2.6c0.7-0.7,1.3-1.5,2-2.2c0.2-0.2,0.4-0.5,0.7-0.5v0.4c-1.1,4.3-3,8.4-5.8,11.9c-1,1.3-2.2,2.5-3.6,3.4
	C264.2,195.3,263.9,195.4,263.7,195.5z"/>
<path class="st0" d="M15.9,173.5c0,1.4-0.2,2.8-0.5,4.2c-0.1,0.4-0.3,0.9-0.4,1.3c-0.1,0.3-0.4,0.4-0.7,0.3c0,0,0,0,0,0
	c-0.4-0.1-0.8-0.4-0.9-0.8c-0.8-2.4-2-4.7-2.9-7.1c-0.4-1.1-0.7-2.2-0.9-3.3c-0.2-2.1,0.3-4.3,1.5-6.1c0.1-0.2,0.3-0.2,0.4-0.1
	c0,0,0.1,0,0.1,0.1c0.3,0.3,0.6,0.7,0.9,1.1c0.7,1.1,1.3,2.1,1.9,3.2C15.6,168.5,16.1,171,15.9,173.5z"/>
<path class="st0" d="M133.5,297.9c1.6-0.4,3.2-0.6,4.8-0.7c3-0.1,5.9,0.3,8.7,1.3c2.9,0.9,5.7,2,8.4,3.3c0.3,0.1,0.7,0.3,1,0.5
	c0.6,0.4,0.7,0.7,0.1,1.2c-0.8,0.6-1.7,1.1-2.6,1.4c-1.4,0.5-3,0.4-4.3-0.2c-1.3-0.6-2.6-1.4-3.7-2.3c-1.6-1.2-3.4-2.3-5.3-3
	c-1.5-0.5-3.1-0.8-4.6-0.9h-1.3C134.1,298.4,133.7,298.2,133.5,297.9z"/>
<path class="st0" d="M241.8,98.1c-0.7,0.1-1.2-0.3-1.8-0.5c-0.2,0-0.3,0-0.4,0.1c0,0.1,0,0.2,0,0.3c0.3,0.7,0.7,1.4,1.2,2
	c0.2,0.4,0.7,0.7,0.7,1.1c-0.5,0-1.1-0.1-1.5-0.4c-3.3-1.1-6.5-2.4-9.6-4.1c-1.1-0.6-2.2-1.2-3.2-2c-0.3-0.3-0.3-0.5,0.1-0.7
	c0.7-0.4,1.5-0.8,2.3-1.1c1.4-0.6,2.8-1.2,4.2-1.8c0.4-0.2,1-0.1,1.3,0.2c1.2,1.2,2.4,2.4,3.6,3.5c0.7,0.7,1.4,1.3,2.1,1.9
	C241.2,97.1,241.8,97.4,241.8,98.1z"/>
<path class="st0" d="M278.2,191c1-1.6,2.1-3.1,3.5-4.4c0.8-0.7,1.2-1.9,0.9-3c-0.1-0.4-0.2-0.9-0.2-1.4c0.8-0.3,1.5-1,1.9-1.8
	c0.5-0.9,0.9-1.9,1.2-2.9c0.2-0.5,0.3-1,0.5-1.5c0-0.1,0.1-0.1,0.2-0.2c0.1,0,0.2,0,0.2,0.2c0.2,0.8,0.3,1.5,0.3,2.3
	c0,1.3,0,2.5,0,3.7c-0.1,2.9-0.6,5.8-1.5,8.5c-0.3,0.9-0.9,1.8-1.7,2.4c-0.7,0.7-1.9,0.8-2.8,0.3c-0.4-0.2-0.8-0.5-1.2-0.8
	L278.2,191z"/>
<path class="st0" d="M283.6,167.5c-0.7-1-1.2-2.1-1.3-3.3c-0.2-0.9-0.4-1.8-0.4-2.7c0-0.3-0.1-0.5-0.3-0.7c0-0.8,0.1-1.7,0.1-2.5
	c0-1.7,0.2-3.3,0.8-4.9c0.3-0.6,0.4-1.3,0.5-2c0.3,0,0.4-0.3,0.5-0.5c0.2-0.5,0.4-0.9,0.6-1.4c0.1-0.5,0.5-0.9,1-1.1
	c1.1,2.3,1.8,4.7,2.3,7.2c0.2,1,0.1,2.1-0.2,3.1C285.9,161.8,284.8,164.6,283.6,167.5z"/>
<path class="st0" d="M130.7,14.7c-1.5,0.5-3.1,0.8-4.7,1c-1.4,0.2-2.8,0.4-4.2,0.5c-1.7,0.2-3.4,0.1-5-0.2c-2.5-0.5-4.9-1.1-7.3-1.9
	c0.1-0.5,0.5-0.5,0.8-0.7c2.5-1.2,5.2-1.9,7.9-2c0.8,0,1.6,0.1,2.4,0.2c3.2,0.7,6.4,1.4,9.5,2.4C130.3,14.2,130.7,14.2,130.7,14.7z"
	/>
<path class="st0" d="M267.2,151.7c-0.9-0.1-1.8-0.4-2.6-0.8l-0.9-0.4c-0.1-0.1-0.2-0.2-0.3-0.3c-2.2-1.8-4-4-5.3-6.5
	c0.5,0,0.9,0.1,1.3,0.4c1.6,1.1,3.5,1.6,5.4,1.5c0.5-0.1,0.9,0.2,1.3,0.3c2.1,0.7,4.4,0.2,6-1.3c0.3-0.2,0.5-0.6,0.9-0.6
	c0.3,0.1,0.4,0.3,0.5,0.6c0.1,0.8,0.1,1.6,0,2.5c-0.5,2.5-2.5,4.3-5.1,4.5C267.9,151.5,267.5,151.3,267.2,151.7z"/>
<path class="st0" d="M63.6,125.2c0.1,1.1,0,2.1-0.3,3.1c0,0.1-0.1,0.3-0.3,0.3c-0.1,0-0.2-0.1-0.3-0.1c-1.7-2.1-2.8-4.5-3.3-7.2
	c-0.3-1.7-0.4-3.5-0.5-5.2c-0.1-2.6-0.1-5.2-0.4-7.9c0-0.6,0-1.3,0-1.9c0-0.2-0.1-0.5,0.2-0.5c0.3,0,0.4,0.2,0.5,0.4
	c0.2,0.4,0.4,0.7,0.6,1.1c0.3,0.7,0.6,1.4,0.9,2.2c1.3,4,2.1,8.1,2.6,12.3C63.5,122.8,63.6,124,63.6,125.2z"/>
<path class="st0" d="M287.2,232.1c0.1,0.1,0.2,0.1,0.2,0.1c0.1,2.6,0.4,5.2,0.4,7.8c-0.1,1-0.4,1.9-1,2.7c-1.5,2.1-3.3,4-5.4,5.7
	c-0.1,0.1-0.3,0.2-0.4,0.1c-0.1-0.1-0.1-0.2-0.2-0.4c0-0.9,0.1-1.8,0.4-2.6c0.4-1.7,0.6-3.5,0.6-5.2c-0.1-1.5,0.5-2.9,1.5-3.9
	c0.9-0.9,1.6-1.9,2.4-2.9C286.1,233,286.6,232.5,287.2,232.1z"/>
<path class="st0" d="M292.4,211c0.2,0.6,0.3,1.2,0.4,1.8c0.1,1.9,0.4,3.7,0.9,5.5c0.4,1.5,0.2,3-0.6,4.3c-0.9,1.4-1.8,2.9-2.7,4.4
	c-0.1,0.2-0.3,0.4-0.5,0.6c-0.1,0.1-0.3,0.3-0.5,0.2c-0.1-0.1-0.2-0.2-0.2-0.4c-0.3-1.5-0.7-2.9-1-4.4c-0.2-0.9-0.3-1.8-0.6-2.7
	c-0.4-1.3-0.1-2.8,0.9-3.8c1.4-1.5,2.5-3.2,3.4-5C291.9,211.3,292,211,292.4,211z"/>
<path class="st0" d="M262.1,283.7c0-1.9,0.6-3.8,1.7-5.4c1.6-2.7,3.5-5.3,5.7-7.7c1.3-1.4,2.7-2.8,4.2-4c0.9-0.9,2-1.5,3.2-2
	c0.3-0.1,0.5,0,0.5,0.4c0,0.1,0,0.1,0,0.2l-0.8,3.6c-0.3,1.2-1.1,2.3-2.2,3c-0.9,0.7-1.9,1.3-2.9,1.9c-3,1.6-5.5,4.1-7.2,7.1
	C263.7,281.8,262.9,282.8,262.1,283.7L262.1,283.7z"/>
<path class="st0" d="M245.4,62.1c2.5,1.1,4.9,2.4,7.1,4c0.6,0.4,1.1,1,1.5,1.6c1.4,2.4,2.6,4.8,3.7,7.4c0.1,0.3,0.3,0.7,0.2,1
	c-0.1,0-0.2,0.1-0.3,0c-2.5-1.5-4.9-3.2-7.2-5.1c-2.5-2.1-4.3-4.9-5.1-8.1C245.3,62.7,245.3,62.3,245.4,62.1z"/>
<path class="st0" d="M223,68.4c0.1-0.5,0.3-1,0.7-1.3c0.5-0.6,1-1.2,1.5-1.8c2.3-2.5,4.5-5,7-7.3c0.3-0.3,0.6-0.4,1-0.4
	c0.9,1.8,1.1,3.9,0.5,5.9c-0.7,2.6-2.8,4.6-5.4,5.1C226.6,68.9,224.8,68.9,223,68.4z"/>
<path class="st0" d="M190.4,291.2c1.7,0,3.5,0.1,5.2,0.5c0.3,0.1,0.7,0.2,1,0.3c0.2,0.1,0.3,0.3,0.2,0.6c0,0.1-0.1,0.1-0.1,0.2
	c-0.9,1.2-2.1,2.1-3.4,2.7c-0.8,0.4-1.6,0.4-2.4,0.2c-0.8-0.3-1.7-0.5-2.5-0.8c-1.6-0.5-3.2-0.9-4.9-1c-0.2,0-0.5,0-0.7,0
	c-1.4,0.1-2.7,0.4-4.1,0.7c-0.5,0.1-1,0.1-1.5,0.1c-0.1,0-0.2-0.1-0.2-0.1c0-0.1,0-0.2,0.1-0.2c0.2-0.1,0.4-0.3,0.6-0.4
	c1.6-0.8,3.2-1.4,5-1.8c1.5-0.4,3.1-0.6,4.6-0.7C188.3,291.3,189.4,291.2,190.4,291.2z"/>
<path class="st0" d="M169.7,298.2c-1.9,0-3.7-0.4-5.4-1.1c-0.9-0.3-1.7-0.6-2.6-1c-1.5-0.6-3-1-4.5-1.2c-0.7-0.1-1.4-0.1-2.1,0
	c-1.1,0.3-2.2,0.1-3.2,0.4c-0.3,0.1-0.6,0.1-0.9-0.1c-0.1,0-0.1-0.2,0-0.2c0.1-0.1,0.2-0.2,0.4-0.2c1.8-0.6,3.6-1,5.4-1.1
	c0.8,0,1.6-0.1,2.3-0.2c0.6-0.1,1.2-0.1,1.8,0c2.6,0.3,5.1,0.7,7.7,1c1.1,0.1,2.3,0.3,3.4,0.4c0.2,0,0.5,0,0.7,0.1
	c0.3,0,0.6,0.3,0.5,0.6c0,0.1,0,0.2-0.1,0.2c-0.2,0.4-0.3,0.7-0.6,1C171.9,297.7,170.8,298.2,169.7,298.2z"/>
<path class="st0" d="M70.7,256.4c-0.3,0.1-0.6,0.1-0.9,0c-2.4-0.6-4.8-1.6-6.9-2.9c-0.6-0.3-1.2-0.8-1.7-1.3
	c-1.6-1.8-3.1-3.7-4.4-5.7c-0.1-0.2-0.3-0.5-0.4-0.7c-0.1-0.1,0-0.2,0.1-0.3c0,0,0.1,0,0.1,0c0.1,0,0.2,0,0.3,0
	c4.1,0.9,7.8,2.9,10.7,5.9C69,252.7,70.1,254.5,70.7,256.4z"/>
<path class="st0" d="M247.2,44.4c-0.1,0.6-0.4,1.1-0.9,1.4c-1.2,1-2.4,1.9-3.5,2.9c-0.4,0.3-0.9,0.5-1.4,0.5c-2.4-2-4.5-4.3-6.4-6.9
	c-0.2-0.2-0.3-0.4-0.4-0.7c-0.1-0.2-0.1-0.4,0.2-0.5h0.2c2.7-0.1,5.5,0.2,8.2,0.8C244.7,42.3,246.1,43.1,247.2,44.4z"/>
<path class="st0" d="M199.5,24.2c1.4,1,2.9,1.9,4.3,2.9c1,0.7,2,1.5,3,2.3c0.4,0.2,0.6,0.6,0.6,1c-1.3-0.3-2.6-0.6-3.8-0.9
	c-3.2-0.8-6.4-1.8-9.4-3.1c-1.1-0.4-2.1-1-3.1-1.6c-0.5-0.3-1-0.7-1.5-1.1c-0.4-0.3-1-0.7-0.7-1.3c0.2-0.4,0.8-0.2,1.2-0.2
	c2.5-0.3,5,0,7.3,0.7C198,23.4,198.8,23.9,199.5,24.2z"/>
<path class="st0" d="M244.7,292.2c-0.2,0-0.3-0.1-0.3-0.3c0.2-0.6,0.4-1.2,0.8-1.6c1.2-1.6,2.6-3,4.1-4.3c1.8-1.5,3.6-2.8,5.6-4
	c1.7-1,3.5-1.9,5.5-2.4c0.4-0.1,0.8,0.1,0.6,0.6c-0.3,1.4-0.9,2.7-1.6,3.9c-0.5,0.7-1.1,1.3-1.9,1.6c-0.9,0.4-1.8,0.8-2.8,1.1
	c-3.4,1-6.5,2.7-9.1,5C245.1,292.1,245,292.1,244.7,292.2z"/>
<path class="st0" d="M224.9,301.2c0.4-0.9,1-1.7,1.7-2.4c1-1.1,2.1-2.2,3.2-3.2c1.5-1.4,3.2-2.5,5.1-3.3c2.6-1.1,5.2-2,7.8-3.1h0.1
	c0.6-0.2,1-0.1,1.3,0.2c0.3,0.3,0.3,0.8,0,1.2c-0.9,1.5-2.2,2.7-3.7,3.5c-0.7,0.4-1.4,0.7-2.2,1c-1.6,0.5-3.2,1-4.8,1.5
	c-2,0.6-3.9,1.5-5.6,2.8c-0.8,0.8-1.8,1.5-2.9,1.9L224.9,301.2z"/>
<path class="st0" d="M278.1,252.8c0.2,0.4,0.2,0.8,0,1.2c-0.7,2-1.2,4.1-1.7,6.1c-0.4,1.9-1.7,3.5-3.4,4.4c-1.3,0.6-2.6,1.2-3.9,1.7
	c-0.2,0.1-0.5,0-0.6-0.3c0-0.1,0-0.1,0-0.2c0-0.4,0.1-0.8,0.2-1.2c0.6-1.7,1.2-3.3,2-4.9c0.5-1.1,1.3-2,2.2-2.8
	c1.4-1.1,2.7-2.3,4-3.5C277.3,253.1,277.6,252.7,278.1,252.8z"/>
<path class="st0" d="M287.6,99.1c-0.3,0-0.4-0.1-0.5-0.4c-0.1-1.1-0.4-2.1-0.4-3.2c-0.1-1.3-0.1-2.6,0-3.8c0.1-2.2,0.4-4.4,0.9-6.5
	c0.5-2.5,1-5.1,1.7-7.6c0-0.1,0-0.2,0.1-0.3c0.1-0.2,0.4-0.3,0.5-0.1c0.3,0.5,0.7,1,0.9,1.4c0.8,1.4,1.3,3,1.3,4.6
	c0,0.9-0.2,1.9-0.6,2.7c-0.5,1.4-1.1,2.7-1.9,3.9c-0.9,1.5-1.4,3.3-1.6,5c-0.3,1.3-0.4,2.6-0.4,3.9C287.7,98.8,287.7,99,287.6,99.1z
	"/>
<path class="st0" d="M287.8,162.2c0.1,0,0.3,0.1,0.4,0.2c1.7,1.5,3.2,3.1,4.7,4.9c0.4,0.5,0.6,1.2,0.4,1.9c-0.3,1.1-0.2,2.3-0.5,3.4
	c-0.2,1.6-0.3,3.2-0.3,4.8c0,0.2,0,0.5-0.3,0.5c-0.1,0-0.3-0.1-0.4-0.2c-0.2-0.3-0.4-0.6-0.6-0.9c-1-1.9-2.1-3.7-3-5.6
	c-0.7-1.4-1.1-2.9-1.1-4.5c0-1.3,0.1-2.7,0.4-4C287.5,162.3,287.6,162.2,287.8,162.2z"/>
<path class="st0" d="M236.7,53.6c-3.7-2.3-7.1-5-10.2-8.1c-1.3-1.3-2.4-2.8-3.2-4.4c-0.1-0.2-0.2-0.5-0.2-0.7c0-0.2,0.1-0.3,0.3-0.3
	c0.2,0,0.3,0.1,0.5,0.1c2.2,0.8,4.4,1.8,6.3,3.2c1,0.6,1.8,1.5,2.4,2.4c1.3,2,2.5,4,3.6,6.1C236.4,52.4,236.6,53,236.7,53.6z"/>
<path class="st0" d="M134,38.5l1.8-1.3c2.1-1.6,4.1-3.2,6.1-4.9c1.4-1.2,2.7-2.5,4-3.9c1-1.2,2.1-2.3,3.3-3.3c0.1,0.6,0,1.2-0.3,1.8
	c-1,2.7-2.3,5.3-3.7,7.8c-0.2,0.4-0.4,0.9-0.6,1.3c-0.1,0.2,0.1,0.4,0.3,0.5c-1.4,1.2-3,2.2-4.8,2.9c0-0.9,0-1.8,0-2.6
	c0-0.4-0.3-0.6-0.6-0.4c-0.8,0.3-1.5,0.7-2.2,1.2c-0.7,0.5-1.4,0.8-2.2,1.3C134.6,38.9,134.3,38.7,134,38.5z"/>
<path class="st0" d="M205,306.2c0.5-0.8,1.3-1.5,2.1-2.1c0.9-0.7,1.9-1.3,2.9-1.9c3.4-1.9,7-3.4,10.8-4.3c1.1-0.3,2.2-0.5,3.3-0.4
	c0.4,0,0.6,0.3,0.4,0.6c-0.5,1-1.2,2-1.9,2.8c-0.9,1.2-2.3,1.8-3.8,1.9c-0.7,0-1.5,0-2.2,0c-2.3,0.1-4.5,0.5-6.6,1.3
	c-0.6,0.3-1.2,0.6-1.8,0.9l-1.9,1C205.7,306.2,205.3,306.3,205,306.2L205,306.2z"/>
<path class="st0" d="M158.4,11.7l3.9,1.8c0.3,0.1,0.5,0.3,0.8,0.4c0,0.4-0.3,0.8-0.6,1l-2.3,2.3c-0.6,0.5-0.9,1.2-0.9,1.9
	c-1.6-0.4-3.2-0.7-4.9-1c-1.4-0.2-2.9-0.4-4.3-0.5c0.1-0.5,0.4-1,0.9-1.2C153.3,14.5,155.8,13,158.4,11.7z"/>
<path class="st0" d="M164.9,299.1c0.2-0.1,0.4-0.2,0.7-0.3c1.8-0.4,3.7-0.9,5.5-1.3c1.2-0.3,2.4-0.1,3.6,0.3c2,0.9,3.9,1.8,5.8,2.8
	c0.1,0,0.1,0.2,0.2,0.2c-0.6,0.5-0.6,0.5-1,0.5c-2.2,0.2-4.5,0.6-6.7,1.1c-1,0.2-2,0.1-2.9-0.3c-1.6-0.8-3.2-1.6-4.6-2.6
	C165.2,299.6,165,299.4,164.9,299.1z"/>
<path class="st0" d="M292.7,187.5c0.5,0.2,0.6,0.7,0.9,1c0.9,1.7,1.7,3.4,2.5,5.2c0.3,0.6,0.3,1.2,0.2,1.8c-0.6,2.3-1.2,4.5-2,6.7
	c0,0.1-0.2,0.1-0.3,0.2c-0.5-0.8-1-1.6-1.3-2.5c-0.5-1-0.8-2.1-1.3-3.2c-0.6-1.4-0.6-2.8-0.3-4.3c0.3-1.4,0.7-2.8,1.1-4.2
	C292.2,188.1,292.4,187.7,292.7,187.5z"/>
<path class="st0" d="M253.1,279.7c-0.4-0.1-1,0.2-1.6-0.1c-0.1-0.8,0.4-1.2,0.8-1.8c0.5-0.8,1.1-1.6,1.8-2.4c0.8-1,2-1.8,3.2-2.1
	c1.9-0.5,3.8-0.9,5.7-1.3h0.2c0.3,0,0.5,0.2,0.4,0.5c-0.1,0.4-0.3,0.8-0.5,1.1c-1,1.2-1.9,2.5-3,3.7c-1.5,1.6-3.5,2.6-5.7,2.6
	L253.1,279.7z"/>
<path class="st0" d="M258,143.6c1.3,2.5,3.1,4.7,5.3,6.5c0.1,0.1,0.2,0.2,0.3,0.3c-0.4,1.1-0.7,2.2-0.9,3.4
	c-0.3,1.2-0.5,2.4-0.7,3.6c0,0.4-0.3,0.5-0.6,0.5c-0.5-0.6-0.9-1.3-1.2-2c-1.9-4-3.1-8.3-3.7-12.7c0-0.1,0-0.2,0-0.3
	c0-0.4,0.2-0.5,0.7-0.3C257.4,143.2,257.7,143.4,258,143.6z"/>
<path class="st0" d="M110.1,255.8c-0.4,0-0.7-0.1-1.1-0.1c-2.2-0.6-4.5-1-6.7-1.2c0-0.5-0.1-0.9-0.4-1.3c-1-2-1.7-4.1-2.2-6.3
	c-0.3-1.1-0.6-2.2-0.9-3.3c0.4-0.3,0.5,0,0.7,0.2c1.5,1.6,3,3.1,4.4,4.7c1.4,1.6,3.2,3.6,4.8,5.3c0.4,0.5,0.9,1,1.3,1.6
	C110.1,255.4,110.1,255.6,110.1,255.8z"/>
<path class="st0" d="M258.3,28.5c0.2,1.8-0.8,3.4-2.3,4.2c-1.7,0.9-3.6,1.5-5.6,1.7c-1.1,0.1-2.2,0.4-3.3,0.5
	c-0.3,0-0.6,0.1-0.9,0.1c-2.4,0.2-4.8,0.7-7.1,1.5c-0.9,0.4-1.8,0.8-2.6,1.3c-0.4,0.2-0.7,0.4-1.1,0.5c0,0-0.2,0-0.3-0.1
	c0-0.1,0-0.2,0-0.3c0.5-0.8,1.1-1.5,1.9-2.1c1.6-1.1,3.5-1.9,5.4-2.2c1.8-0.3,3.5-0.5,5.3-0.6c2.2-0.1,4.4-0.5,6.5-1.2
	c1.1-0.4,2-1.2,2.6-2.1c0.5-0.8,0.6-1.7,0.3-2.6c-0.1-0.3-0.2-0.5-0.5-0.6c-0.6-0.5-1.4-0.8-2.1-1c-0.6-0.1-1.1-0.2-1.7-0.4
	c0,0-0.1-0.2-0.1-0.2c0-0.1,0.1-0.2,0.2-0.2c0.1-0.1,0.3-0.1,0.5-0.1c1.3,0,2.6,0.4,3.6,1.3C257.9,26.6,258.3,27.5,258.3,28.5z"/>
<path class="st0" d="M273.1,95.3c-0.6-1.4-1.6-2.6-2.8-3.6c0-0.4,0-0.8-0.2-1.2c-0.3-1-0.4-2-0.5-3c-0.2-1.2-0.3-2.3-0.3-3.5
	c0.9,0.8,1.8,1.5,2.8,2.3c1.9,1.6,4,2.9,6.2,3.8c0.7,0.4,1.6,0.6,2.4,0.5l0,0V91c0.1,0.5-0.3,1-0.3,1.5l-3.9-1.3l-1.2-0.4
	c-1.3-0.4-1.6-0.2-1.3,1s0.6,2.5,0.8,3.8L273.1,95.3z"/>
<path class="st0" d="M259.6,116.8c-0.3,0.1-0.7,0.1-1,0c0-0.6-0.4-0.8-0.8-0.9c-2.3-0.7-4.6-1.6-6.8-2.6c-0.3-0.1-0.6-0.2-0.9-0.1
	l0,0c0-0.2-0.2-0.3-0.3-0.3l0,0c-0.1-0.3-0.3-0.5-0.5-0.7c-2-1.5-3.7-3.3-5.2-5.2c0.2-0.4,0.6-0.2,0.8-0.2c0.9,0.3,1.9,0.5,2.9,0.5
	c1.2,0.8,2.4,1.7,3.6,2.4c1,0.6,2.1,1.1,3.3,1.4c0.2,0,0.3,0.2,0.5,0.3c0,0.3,0.1,0.5,0.3,0.7l2.8,2.6c0.3,0.3,0.6,0.7,0.9,1
	C259.5,116,259.6,116.4,259.6,116.8z"/>
<path class="st0" d="M141.9,293.4c0.1-0.2,0.3-0.3,0.5-0.3l4.3-1.1c0.3-0.1,0.6-0.1,0.9-0.1c0.3,0.4,0.8,0.3,1.1,0.3
	c1.2-0.2,2.3,0.2,3.1,1c1,0.8,2,1.5,3,2.3c0.3,0.2,0.6,0.5,0.8,0.7c0.1,0.1,0.2,0.2,0.2,0.4c0,0.2-0.2,0.2-0.4,0.2
	c-0.2,0-0.4,0-0.6,0h-6.8c-0.9,0-1.8-0.2-2.6-0.7c-1.1-0.6-2.2-1.3-3.1-2.1C142.1,293.9,141.9,293.7,141.9,293.4z"/>
<path class="st0" d="M104.6,40.6c1.8-0.1,3.4,1.2,3.5,3c0,0.4,0,0.9-0.2,1.3c-0.4,1.4-1.2,2.7-2.3,3.7c-0.1,0.2-0.4,0.2-0.6,0.1
	c-1.1-0.7-2.2-1.5-3.1-2.4c-1.1-0.8-1.5-2.2-1.1-3.5c0.5-1.4,1.9-2.3,3.4-2.3C104.3,40.6,104.5,40.6,104.6,40.6z"/>
<path class="st0" d="M260.8,166.7c0,2.9,0,5.8,0,8.7c0,0.4,0,0.7,0,1.1c0,0.3-0.2,0.5-0.4,0.6c-1.2-1.4-2-3.1-2.3-4.9
	c-0.8-3.5-1.1-7.2-0.8-10.8c0.1-0.6,0.2-1.1,0.4-1.7c0-0.1,0.1-0.3,0.3-0.3c0.2,0,0.3,0.1,0.3,0.2c0.2,0.5,0.4,1,0.5,1.5
	C259.3,163.1,260,164.9,260.8,166.7z"/>
<path class="st0" d="M251.9,138c-0.5-0.4-1.1-0.8-1.7-1.1c-1.6-0.8-3-1.9-4.2-3.2c0.2-0.4,0.5-0.3,0.8-0.3c0.5,0,1,0.4,1.5,0.2
	c2.4,0.9,5,0.9,7.4,0c1,2.1,2.1,4.1,3.3,6.1c0.1,0.1,0.1,0.3,0.2,0.4c-1.1,0.1-2.3-0.1-3.3-0.6l-3.1-1.3
	C252.5,138.2,252.2,138.1,251.9,138z"/>
<path class="st0" d="M117.8,280.3c-0.5-0.3-1.1-0.6-1.7-0.7c-2.1-0.7-4.1-1.8-6-3.1c-0.4-0.3-0.7-0.6-1-0.9c-0.1-0.1-0.1-0.3,0-0.3
	c0,0,0,0,0.1,0c0.3-0.1,0.5-0.1,0.8-0.1c1.9-0.1,3.9,0,5.8,0.2c0.9,0.1,1.8,0.5,2.6,1l2.6,1.8c0.3,0.8,1.3,1.1,1.5,2.1
	c-0.8,0.3-1.7,0.4-2.6,0.2C119.2,280.3,118.5,280.2,117.8,280.3z"/>
<path class="st0" d="M234.2,27.6c-0.6-0.1-1.3,0-1.9,0.2h-0.2c-1.8-0.1-3.6,0.5-5.5,0.3c-2.1,0-4.2-0.6-6-1.5
	c-0.2-0.1-0.3-0.2-0.5-0.4c0,0,0-0.2,0-0.2c0.4-0.1,0.9-0.1,1.3,0c1,0.3,2.1,0.2,3.1,0.5c0.6,0.1,1.2,0.1,1.7,0
	c1.8-0.2,3.5-0.6,5.2-1c1.1-0.3,2.1-0.5,3.2-0.8c1.1-0.2,2.1,0.1,3,0.8c0.4,0.3,0.7,0.6,1,1c0.8,1.1,0.7,1.3-0.2,2.1
	c-0.5,0.5-1.1,1-1.6,1.5c-0.1,0-0.2,0-0.3,0c-0.1-0.1-0.1-0.1-0.1-0.2c0.1-0.3,0.1-0.7,0.2-1.1c0-0.8-0.2-1.1-1-1.3
	c-0.1,0-0.2,0-0.3,0L234.2,27.6z"/>
<path class="st0" d="M97.6,271.5c-0.7,0.1-1.5,0.1-2.2-0.1c-1.5-0.3-2.9-0.9-4.2-1.7c-2.1-1.2-4-2.7-5.6-4.5
	c-0.1-0.2-0.3-0.3-0.4-0.5c0-0.1,0-0.3,0.1-0.3c0,0,0.1,0,0.1,0c0.1,0,0.1,0,0.2,0c2.4,0.2,4.7,0.7,6.9,1.5c0.5,0.2,0.9,0.5,1.3,0.8
	c1.4,1.3,2.6,2.7,3.6,4.3C97.5,271.2,97.6,271.4,97.6,271.5z"/>
<path class="st0" d="M277,163.1c0-0.8,0-1.6,0-2.5c0-0.2,0.1-0.4-0.2-0.5s-0.3,0.2-0.4,0.4c-0.5,1-1,2.1-1.6,3.1
	c-0.7-0.2-1.4-0.4-2.1-0.6c-0.5-0.1-0.9-0.3-1.1-0.7c0.5-0.5,1.1-0.9,1.7-1.4c2.2-2.1,3.8-4.6,4.8-7.4c0.1-0.6,0.4-1.2,0.7-1.7
	c0.2,0,0.4,0.2,0.4,0.4c0.5,1.9,0.8,4,0.7,6c-0.1,1.4-0.5,2.7-1.3,3.8C278.1,162.5,277.6,162.9,277,163.1z"/>
<path class="st0" d="M106.7,261.6c-0.1-0.3,0.1-0.5,0.4-0.6l1.7-0.4l5.2-1.2c0.6,0.8,1.3,1.5,2.1,2.2c0.3,0.3,0.7,0.6,0.8,1.1
	c-0.4,0.2-0.8,0.4-1.3,0.5c-1.4,0.5-2.7,1.2-3.9,2.1c-0.4,0.3-0.7,0.8-0.6,1.3c-0.4,0-0.6-0.3-0.9-0.6l-2.9-3.8
	C107.2,261.9,106.9,261.7,106.7,261.6z"/>
<path class="st0" d="M194.4,301.5c-2-0.2-4-0.5-5.9-1c-0.1,0-0.2-0.1-0.2-0.2c-0.1-0.1,0-0.3,0.1-0.4c1.4-0.8,2.8-1.4,4.3-1.8
	c1.2-0.3,2.4-0.5,3.6-0.5c1.9-0.1,3.7,0.3,5.4,1c0.3,0.2,0.3,0.5,0,0.7c-1.6,0.8-3.3,1.5-5,1.9C196,301.4,195.2,301.6,194.4,301.5z"
	/>
<path class="st0" d="M98.9,47.8c0.3,0,0.6,0.1,0.9,0.3c0.6,0.4,1.2,0.9,1.6,1.5c0.6,0.8,1.7,1,2.5,0.6c0.7-0.3,1.4-0.5,2-0.8
	c0.3-0.2,0.6-0.3,0.9-0.3c0.2,1.1-0.1,2.3-0.7,3.2c-0.5,0.9-1.3,1.6-2.3,2c-2,0.7-4.3-0.3-5-2.4c0-0.1,0-0.1-0.1-0.2
	C98.4,50.5,98.4,49.1,98.9,47.8z"/>
<path class="st0" d="M285,148.5c-0.5,0.2-0.8,0.6-1,1.1c-0.2,0.5-0.4,0.9-0.6,1.4c-0.1,0.2-0.2,0.5-0.5,0.5c-0.3,0-0.5-0.2-0.6-0.4
	c-1.1-1.8-1.9-3.7-2.4-5.7c-0.3-1.3-0.4-2.6-0.1-3.9c0.1-0.4,0.5-0.7,0.8-0.4c1.1,0.8,2.2,1.7,3.4,2.6c0.4,0.3,0.6,0.8,0.6,1.3
	C284.6,146.1,284.7,147.3,285,148.5z"/>
<path class="st0" d="M128.7,29.5c-0.1,1.4-0.4,2.8-1,4.2c-0.9,2.6-2.3,5-3.9,7.2c-0.1-0.4-0.3-0.8-0.5-1.1c-0.7-1.1-0.7-2.5-0.2-3.7
	c0.3-0.7,0.7-1.3,1.1-1.8c0.8-1,1.7-2,2.6-2.9C127.6,30.7,128,30,128.7,29.5z"/>
<path class="st0" d="M117.8,280.3c0.7-0.1,1.3-0.1,2,0.1c0.9,0.1,1.8,0.1,2.6-0.2c-0.1-1-1.2-1.3-1.5-2.1c0.4-0.1,0.8,0,1.2,0.3
	c0.8,0.5,1.6,1.2,2.2,1.9c0.9,1,1.8,2,2.5,3.1c0.3,0.4,0.5,0.9,0.5,1.4l-2.3-0.2c-0.2-0.4-0.7-0.5-1-0.6c-1.3-0.5-2.5-1-3.7-1.6
	c-0.7-0.4-1.4-0.8-2-1.2C117.9,281.1,117.7,280.7,117.8,280.3z"/>
<path class="st0" d="M266.4,104.3c0.1,2.2,0,4.4-0.3,6.5c-0.1,1.5-0.8,2.8-1.9,3.8c0-0.2,0-0.4,0-0.6c-0.6-1.1-0.9-2.3-1-3.5
	c-0.1-0.2-0.1-0.5-0.3-0.7c1.4-1.9,2-4.3,1.9-6.6c-0.1-0.4-0.1-0.9,0-1.3c0.5,0.4,0.5,1,0.7,1.6C265.9,104,265.8,104.3,266.4,104.3z
	"/>
<path class="st0" d="M217.6,295.9c-0.6,0-1.3,0-1.9,0c-0.2,0-0.3-0.1-0.4-0.2c-0.1-0.2,0-0.3,0.1-0.4c1.4-1.1,2.8-1.9,4.4-2.6
	c0.2-0.1,0.4-0.1,0.6-0.2c1.7-0.2,3.4,0,5,0.4c0.1,0,0.3,0.2,0.3,0.3c0.1,0.2,0,0.4-0.2,0.5c-1.3,0.9-2.7,1.6-4.3,1.9
	C220.1,295.9,218.9,296,217.6,295.9z"/>
<path class="st0" d="M243.1,284.7c0.6,0,1.2,0,1.7,0c0.2,0,0.3,0.2,0.2,0.3c0,0,0,0.1-0.1,0.1c-0.9,1.1-2.1,1.9-3.4,2.5
	c-1.9,0.8-3.8,1.4-5.9,1.6c-0.2,0-0.3,0-0.5,0c-0.1,0-0.2-0.1-0.3-0.1c-0.1-0.1-0.1-0.3,0-0.4l1.9-1.8c0.2-0.2,0.5-0.4,0.7-0.6
	c1.2-1.1,2.8-1.7,4.4-1.7L243.1,284.7L243.1,284.7z"/>
<path class="st0" d="M285.5,110.6c-0.3-0.5-0.5-1.1-0.5-1.7c-0.3-1.9-0.5-3.8-0.6-5.8c0.4,0,0.5-0.4,0.6-0.6
	c0.2-0.3,0.4-0.6,0.6-0.9c0.1-0.2,0.3-0.2,0.5-0.1c0,0,0.1,0.1,0.1,0.1c0.7,1.5,1.2,3.1,1.4,4.7c0.1,1.4-0.3,2.8-1.3,3.8
	C286.2,110.4,285.9,110.6,285.5,110.6z"/>
<path class="st0" d="M286.3,71.1c0.9,1.4,1.4,3,1.5,4.6c-0.1,1.8-0.3,3.5-0.8,5.2c-0.2,0.7-0.4,1.3-0.6,1.9c0,0-0.2,0.1-0.2,0.1
	c-0.1,0-0.2-0.1-0.2-0.2c0-1.1-0.5-2.2-0.4-3.4c0-0.6,0-1.1-0.2-1.7c-0.2-1.2-0.2-2.4,0-3.6c0-0.5,0.2-1.1,0.3-1.7
	C285.6,71.9,285.9,71.4,286.3,71.1z"/>
<path class="st0" d="M274.5,108.4c0.4,0.4,0.8,0.9,1,1.5c-0.5,0.5-1,1.1-1.4,1.6c-0.9,1.2-2,2.2-3.2,3.1c-0.4-1.9-0.8-3.7-1.3-5.6
	c0.2,0,0.4,0,0.6,0.1c0.6,0.3,1.3,0.3,1.9,0c0.4-0.2,0.9-0.3,1.3-0.5C273.7,108.5,274.1,108.4,274.5,108.4z"/>
<path class="st0" d="M142,11.8c0.3-0.1,0.6-0.1,0.8,0c0.1,0.5,0,0.9-0.1,1.4c-0.5,2-1.4,3.9-2.6,5.5c-0.3,0.3-0.5,0.7-0.8,1
	c-0.2,0.2-0.3,0.5-0.3,0.7c-1.1-0.2-2.2-0.5-3.2-1.1c0-0.5,0.2-0.9,0.7-1.1c0.8-0.5,1.6-1,2.3-1.6C140.5,15.5,141.6,13.8,142,11.8z"
	/>
<path class="st0" d="M256,28.8c0.2,1.6-0.8,2-2.3,2.2c-0.6,0-1.1-0.1-1.7-0.4c-0.3-0.1-0.5-0.4-0.5-0.7c0.1-0.8,0.3-1.6,0.7-2.4
	c0.5-0.8,1.5-1.1,2.4-0.8c0.7,0.3,1.2,0.9,1.3,1.7C256.1,28.5,256,28.7,256,28.8z"/>
<path class="st0" d="M163.1,293.4c1.4-0.6,2.7-1.4,4-2.3c0.4,0.7,1.2,1.2,2,1.3c-0.1,0.6-0.1,0.6,0.6,0.6c0.2,0.3,0.4,0.6,0.8,0.7
	c0.5,0.3,0.9,0.7,1.3,1.1c0,0,0,0.2,0,0.3s-0.1,0-0.1,0c-0.6-0.1-1.3-0.2-1.9-0.3c-1.8-0.3-3.6-0.6-5.4-1
	C164,293.9,163.4,293.9,163.1,293.4z"/>
<path class="st0" d="M283.6,113.4c0.4,0,0.8-0.2,1-0.5c0.3-0.3,0.7-0.6,1.1-0.8c0.6,1.3,1.2,2.5,1.8,3.8c0.5,1.1,0.9,2.3,1.1,3.5
	c-0.4,0.3-0.5,0-0.7-0.1c-1.2-1.2-2.3-2.6-3.3-4c-0.4-0.5-0.7-1-1.1-1.5L283.6,113.4z"/>
<path class="st0" d="M283.6,113.4v0.3c-0.3,0.1-0.6,0.4-0.8,0.7c-0.9,1.5-1.5,3.2-1.8,5c-0.5-0.8-1-1.5-1.5-2.3
	c0.4-0.4,0.6-0.9,0.6-1.4c0.2-1.3,0.7-2.5,1-3.7c0.1-0.5,0.3-0.9,0.7-1.1c0.4,0.3,0.6,0.8,0.8,1.2
	C282.9,112.6,283.2,113,283.6,113.4z"/>
<path class="st0" d="M162.2,7c-1.7,0.2-3.4,0.3-5.1,0.3c0.4-0.9,1.1-1.7,1.9-2.2c1.2-0.9,2.7-1.3,4.1-1.2c0.5,0,0.7,0.4,0.4,0.9
	c-0.3,0.5-0.7,0.9-1,1.3C162.4,6.3,162.2,6.6,162.2,7z"/>
<path class="st0" d="M258,143.6c-0.3-0.3-0.6-0.5-0.7-0.9c0.4,0,0.8-0.2,1-0.6c0.4-0.6,0.8-1.1,1.3-1.7c0.2,0.2,0.4,0.4,0.6,0.7
	c1.1,1.4,2.3,2.6,3.8,3.6c0.3,0.2,0.6,0.5,0.8,0.7c-1.9,0.1-3.8-0.4-5.4-1.5C259,143.7,258.5,143.6,258,143.6z"/>
<path class="st0" d="M278.2,120c0.1,1.2,0.1,2.5,0,3.7c-0.5,0.5-0.5,1.1-0.8,1.6c-0.2,0.3-0.3,0.5-0.7,0.6c-0.3-2.1-0.8-4.2-1.4-6.2
	c0-0.1,0.1-0.1,0.1-0.1c0.4-0.4,0.7-0.8,1.1-1.2s0.5-0.2,0.7,0.2c0.1,0.4,0.3,0.8,0.4,1.1C277.8,120,278,120,278.2,120z"/>
<path class="st0" d="M267.5,99.1c2,2.1,3.8,4.4,5.5,6.8c-2.3,0.1-4.3-1.4-4.9-3.5C267.6,101.3,267.4,100.2,267.5,99.1z"/>
<path class="st0" d="M273.8,179.9v-0.4c0.2-0.4,0.3-0.8,0.1-1.2c0,0,0.1-0.2,0.1-0.2c0.1,0,0.2,0,0.3,0c0.1,0.1,0.3,0.2,0.4,0.3
	l2.9,3.4c-0.5,1.2-1.1,2.3-1.8,3.4c-0.2-0.1-0.4-0.4-0.4-0.6c-0.3-1.1-0.6-2.3-0.9-3.4C274.4,180.6,274.2,180.2,273.8,179.9z"/>
<path class="st0" d="M250.2,31.7c-0.6,0-1.2-0.1-1.7-0.4c-1.1-0.6-1.5-1.9-0.9-3c0.2-0.4,0.5-0.7,0.8-0.9c0.5-0.4,1.1-0.7,1.7-0.7
	c0.2,0,0.4,0.2,0.4,0.4c-0.1,0.4-0.2,0.8-0.4,1.2c-0.3,0.7-0.1,1.5,0.5,2c0.2,0.2,0.4,0.4,0.7,0.7c0.1,0.2,0.1,0.4-0.1,0.6
	c-0.1,0.1-0.2,0.1-0.2,0.1C250.7,31.6,250.5,31.6,250.2,31.7z"/>
<path class="st0" d="M280.8,90.6c0.1-0.5-0.4-0.7-0.6-1c-0.7-0.7-1.5-1.3-2.3-2.1c0.1-0.3,0.3-0.4,0.6-0.4c0.3,0,0.6,0.2,0.9,0.2
	c0.5,0.1,1-0.1,1.3-0.6c0.5-0.7,1-1.4,1.6-2.1c0.1-0.1,0.2-0.2,0.4-0.2c0.3,0,0.3,0.3,0.3,0.5c0,1.1-0.2,2.2-0.6,3.2
	c-0.2,0.7-0.5,1.3-0.8,2c-0.1,0.2-0.3,0.3-0.5,0.4L280.8,90.6L280.8,90.6z"/>
<path class="st0" d="M113,268.9c0.1,0,0.1,0,0.2,0c1.6,1.2,3.2,2.3,5,3.2l0.4,0.4l0,0c0.4,0.9,1.1,1.5,1.4,2.4
	c0,0.1,0.1,0.3-0.1,0.4c-0.1,0.1-0.2,0.1-0.3,0.1c-0.2,0-0.4-0.1-0.6-0.2c-0.6-0.4-1.2-0.8-1.8-1.3c-1.5-1.3-2.6-2.8-3.9-4.2
	C113,269.4,112.9,269.1,113,268.9z"/>
<path class="st0" d="M273.2,166.5c-0.3,0.7-0.8,1.4-1.5,1.9c-0.8-1.3-1.4-2.7-1.9-4.1c0-0.1,0-0.2,0.1-0.2c0.1,0,0.2,0,0.3,0
	c0.6,0.3,1.1,0.7,1.6,1.2C272.3,165.7,272.8,166.1,273.2,166.5z"/>
<path class="st0" d="M199.5,24.2c-0.8-0.3-1.5-0.8-2.2-1.2c0-0.1,0-0.4,0.1-0.4c0.6-0.6,1.3-1,2.1-1.2c0.7,0.4,1.4,0.9,2,1.5
	c-0.6,0.1-1.2,0.4-1.7,0.7C199.7,23.7,199.5,23.9,199.5,24.2z"/>
<path class="st0" d="M244.3,232.6c-0.2-0.6-0.5-1.1-1.3-1c0.9-0.7,2-1.3,3.1-1.8c0.1,0,0.2,0,0.3,0c0,0.1,0,0.2,0,0.3
	C245.9,231.1,245.2,231.9,244.3,232.6z"/>
<path class="st0" d="M243.4,119.4c0.1-0.2,0.2-0.4,0.5-0.4c0.1,0.1,0.2,0.3,0.2,0.4c0.1,0.1,0.1,0.3,0,0.4c-0.1,0.1-0.3,0-0.4-0.1
	L243.4,119.4z"/>
<path class="st0" d="M123.8,223.2h0.3c0,0,0.1,0,0.1,0.1c0,0.1-0.1,0.1-0.2,0.1c0,0-0.1,0-0.1,0
	C123.9,223.3,123.8,223.2,123.8,223.2L123.8,223.2z"/>
<path class="st0" d="M15.2,192.9c-0.1,0.1-0.1,0.1-0.2,0c0-0.1,0-0.1,0-0.2L15.2,192.9L15.2,192.9z"/>
<path class="st0" d="M279.2,240.1l0.1-0.1c0,0,0,0.1,0,0.1C279.4,240.1,279.4,240.1,279.2,240.1L279.2,240.1z"/>
<path class="st0" d="M229.1,82.5H229C229,82.4,229,82.4,229.1,82.5L229.1,82.5z"/>
<path class="st0" d="M262.1,283.7l-0.1,0.1L262.1,283.7L262.1,283.7z"/>
<path class="st0" d="M98.5,254.3c-0.1,0.1-0.3,0.1-0.4,0c0,0,0,0,0-0.1C98.2,254.1,98.4,254.1,98.5,254.3z"/>
<path class="st0" d="M271.6,255v-0.1C271.6,254.9,271.7,254.9,271.6,255L271.6,255z"/>
<path class="st0" d="M200,20.8l-0.4,0.3C199.6,20.9,199.8,20.7,200,20.8z"/>
<path class="st0" d="M252.6,143.7v-0.1C252.6,143.5,252.6,143.6,252.6,143.7L252.6,143.7z"/>
<polygon class="st0" points="244.1,292.7 244.1,292.6 244.2,292.6 "/>
<path class="st0" d="M280.7,90.6h0.4l-0.3,0.3L280.7,90.6z"/>
<path class="st0" d="M225,301.2c-0.1,0.2-0.2,0.3-0.4,0.3l0,0c0-0.2,0.1-0.3,0.2-0.4L225,301.2z"/>
<path class="st0" d="M224.6,301.5l-0.1,0.1C224.5,301.6,224.5,301.6,224.6,301.5L224.6,301.5z"/>
<path class="st0" d="M198,294.9v0.1C198,295.1,197.9,295,198,294.9L198,294.9z"/>
<path class="st0" d="M74.5,37.3c1.6-0.3,2.8,0.7,4.1,1.8c1.4,1.3,2.2,3.1,2.1,5c0,2.3-1.2,4.4-3.3,5.5C75,50.9,72.1,50.7,70,49
	c-1.3-1.2-2.2-2.8-2.6-4.5c-0.4-2.1,0.4-4.3,2.1-5.7c1-0.9,2.3-1.4,3.6-1.5C73.5,37.2,73.9,37.3,74.5,37.3z M78.8,43.9
	c0-0.5,0-1-0.1-1.5c-0.2-1-1-1.6-1.6-2.3c-0.9-1-2.2-1.5-3.5-1.3c-2.5,0.3-3.9,1.3-4.5,3.6c-0.5,2.8,1.3,5.5,4.1,6
	c0.8,0.1,1.6,0.1,2.3-0.1c1.2-0.3,2.2-1.1,2.9-2.1C78.8,45.6,78.9,44.8,78.8,43.9z"/>
<path class="st0" d="M76.6,7.9c-0.2-2.8,1.3-4.6,3.4-6.2c0.6-0.5,1.4-0.7,2.2-0.7c0.2,0,0.4,0,0.6-0.1c1.6-0.5,3.3-0.1,4.6,1
	c2.1,1.3,3.3,3.6,3.2,6.1c0.1,1.6-0.4,3.1-1.3,4.4c-0.2,0.3-0.4,0.6-0.8,0.8c-1.1,0.7-2.2,1.2-3.4,1.5c-2.2,0.6-4.6,0-6.3-1.6
	c-0.9-0.9-1.6-1.9-2-3.2C76.6,9.3,76.6,8.6,76.6,7.9z M88.9,7.8c0.1-1.4-0.4-2.8-1.6-3.7c-0.1-0.1-0.2-0.2-0.3-0.3
	c-0.9-1-2.2-1.5-3.5-1.4c-2.2,0-4.3,1.4-5.1,3.5C78,7.2,78,8.6,78.3,9.9c0.6,1.2,1.5,2.1,2.6,2.8c1.7,0.9,3.6,0.8,5.2-0.2
	C87.8,11.4,89.2,10,88.9,7.8z"/>
<path class="st0" d="M66.5,25.8c-0.8,1.9-1.5,3.7-2.2,5.4c-0.5,1.3-1.5,2.4-2.8,3c-1.8,0.9-3.6,1.7-5.5,2.3
	c-0.6,0.2-1.3,0.3-1.9,0.1c1.1-1.9,2.1-3.7,3.2-5.4c0.4-0.6,0.9-1.2,1.4-1.6c2-1.7,4.3-3,6.9-3.6C65.8,25.8,66,25.8,66.5,25.8z"/>
<path class="st0" d="M19,63.8c-1.1,0.1-2.1-0.4-2.8-1.2c-1.3-1.2-1.9-3-1.4-4.7c0.2-1,0.8-1.8,1.7-2.3c1.2-0.9,2.7-1.1,4-0.7
	c1.3,0.4,2.4,1.4,2.9,2.7c0.5,0.9,0.6,1.9,0.3,2.9C23.2,62.6,21.2,64,19,63.8z M19,62.5c0.3,0,0.5,0,0.8,0c0.6,0.1,1.2-0.2,1.5-0.6
	c0.1-0.2,0.3-0.3,0.4-0.4c1.2-1,1.3-2.7,0.4-3.9c0,0,0,0,0,0c-0.7-1.1-1.9-1.7-3.2-1.5c-1.4,0.2-2.6,1.2-3.1,2.5
	c-0.2,0.5-0.2,1,0,1.5c0.2,0.5,0.4,0.9,0.6,1.3C17.1,62,17.8,62.8,19,62.5L19,62.5z"/>
<path class="st0" d="M29,53.5c-0.5,0-0.8,0-1.2,0c-0.2,0-0.3,0-0.5-0.1c-1.1-0.6-1.9-1.7-2.1-2.9c-0.2-1.2,0.2-2.4,1-3.3
	c0.9-1.1,2.3-1.6,3.7-1.4c1.5,0.2,2.8,1.3,3.2,2.7c0.4,1.5-0.1,3-1.3,3.9C30.9,53.1,30,53.8,29,53.5z M29,52.3
	c0.4,0,0.9,0.1,1.3-0.2c0.5-0.3,1-0.8,1.3-1.3c0.5-0.8,0.4-1.9-0.4-2.6c-0.1-0.2-0.3-0.3-0.4-0.4c-0.5-0.6-1.3-0.8-2-0.6
	c-0.8,0.2-1.4,0.7-1.9,1.3c-0.3,0.4-0.4,0.9-0.4,1.5C26.5,51.6,27.1,52.3,29,52.3L29,52.3z"/>
<path class="st0" d="M71.5,90c0-0.2,0.1-0.4,0.1-0.6c0.6-1.4,1.5-2.6,2.7-3.6l0.1-0.1c0.7-0.4,1.4-0.6,1.8-0.2
	c0.4,0.5,0.5,1.2,0.3,1.7c-0.2,0.6-0.6,1.2-1,1.7c-0.5,0.6-1,1.2-1.6,1.7c-0.3,0.3-0.6,0.5-1,0.6C72.1,91.4,71.5,91,71.5,90z
	 M73.3,89.6c0.1,0,0.2,0,0.3,0c0.8-0.4,1.4-1.1,1.6-2c0-0.1,0-0.3-0.1-0.4C75,87,74.9,87,74.7,87c-0.9,0.4-1.6,1.2-1.8,2.2
	C72.9,89.3,73.1,89.5,73.3,89.6L73.3,89.6z"/>
<path class="st0" d="M70.6,181.5c-0.4-1.2-0.7-2.5-1-3.8c-0.6-2.9-0.1-5.9,1.6-8.3c0.2-0.4,0.6-0.4,0.8,0c0.5,1.3,1.1,2.5,1.5,3.7
	c0.3,0.8,0.3,1.7,0.1,2.6c-0.5,2-1.4,3.8-2.5,5.5C71,181.4,70.8,181.5,70.6,181.5z"/>
<path class="st0" d="M139,20.4c0-0.3,0.1-0.5,0.3-0.7c0.3-0.3,0.5-0.7,0.8-1c1.2-1.7,2.1-3.6,2.6-5.5c0.1-0.4,0.2-0.9,0.1-1.4
	c0.6-0.1,1.1-0.2,1.7-0.1c3.2-0.1,6.3-0.4,9.4-0.9c1.4-0.3,2.9-0.6,4.3-1.1c1.4-0.4,2.8-0.8,4.3-1.2c0.5-0.2,1.1-0.4,1.6-0.6
	c0.8-0.4,1.6-0.8,2.4-1.2c0.7,0.1,1.4,0,2-0.3c1-0.4,2.1-0.6,3.2-0.6c0.2,0,0.3,0,0.5,0c0.2,0,0.6,0.5,0.3,0.7
	C172,7,171.7,7.8,171,8.2c-0.4-0.3-0.9-0.5-1.3-0.8c-0.6-0.5-1.4-0.5-2-0.1c-0.6,0.3-1.2,0.6-1.9,0.8c-2,0.9-4.1,1.7-6.2,2.3
	c-0.3,0.1-0.7,0.2-1,0.3c-0.3,0.1-0.4,0.5-0.2,0.9c-2.6,1.3-5.1,2.9-7.4,4.7c-0.5,0.2-0.8,0.7-0.9,1.2c-0.8,0.1-1.6,0.2-2.5,0.3
	c-1.8,0.1-3.6,0.8-5,2C141.7,20.8,140.3,21,139,20.4z"/>
<path class="st0" d="M153,28.8c0-0.4,0-0.7,0-1c0.2-2.1,2-3.7,4.1-3.8c2.2,0.1,4.1,1.7,4.4,3.9c0.2,0.9,0.1,1.9-0.2,2.8
	c-0.5,1.3-1.7,2.2-3,2.5c-1.6,0.5-3.3-0.2-4.2-1.5c-0.1-0.1-0.2-0.2-0.3-0.4C153.1,30.6,152.9,29.7,153,28.8z M154.3,28.6
	c-0.1,1.1,0.5,2.2,1.5,2.8c0.6,0.6,1.5,0.7,2.2,0.4c0.5-0.2,0.9-0.5,1.3-0.8c1.3-1.1,1.4-3.1,0.2-4.4c-0.4-0.5-0.9-0.8-1.5-0.9
	c-0.3-0.1-0.7-0.2-1.1-0.2C155.3,25.6,154.1,27,154.3,28.6C154.3,28.6,154.3,28.6,154.3,28.6L154.3,28.6z"/>
<path class="st0" d="M144.8,36.4c-0.2-0.1-0.4-0.3-0.3-0.5c0.2-0.5,0.4-0.9,0.6-1.3c1.5-2.5,2.7-5.1,3.7-7.8
	c0.3-0.6,0.4-1.2,0.3-1.8c0.1-0.1,0.1-0.2,0.2-0.3c0.1-0.1,0.2-0.1,0.4-0.2c0,0,0.2,0.1,0.2,0.2c0.5,3.5-0.6,7.1-2.9,9.8
	C146.3,35.2,145.6,35.9,144.8,36.4z"/>
<path class="st0" d="M22.6,179.8c-0.3-1.1,0.7-1.9,1.6-2.6c0.7-0.4,1.6-0.4,2.2,0c0.8,0.5,1.5,1.2,1.8,2.1c0.2,0.5,0.2,1.1-0.1,1.7
	c-0.4,0.9-1.2,1.6-2.1,2c-0.4,0.2-0.9,0.2-1.4,0c-0.8-0.3-1.5-0.8-1.9-1.6C22.5,181.2,22.7,180.6,22.6,179.8z M27.1,180
	c0.1-1.1-0.5-1.9-2-1.7c-0.5,0.1-1,0.4-1.2,0.9c-0.3,0.6-0.3,1.3,0,1.9c0.3,0.6,1,1,1.7,0.9C26.6,181.9,27.2,181,27.1,180z"/>
<path class="st0" d="M118.5,272.5l-0.4-0.4C118.3,272.2,118.6,272.1,118.5,272.5z"/>
<path class="st0" d="M23,128.9c0,0.4-0.1,0.9-0.2,1.4c0,0.2-0.2,0.4-0.4,0.4c-0.2,0-0.2-0.1-0.3-0.3c-0.4-0.9-0.4-1.9,0-2.7
	c0.1-0.2,0.2-0.5,0.5-0.4c0.2,0,0.4,0.2,0.4,0.5C23,128,23,128.4,23,128.9z"/>
<path class="st0" d="M250.6,130.9c-0.4-1.7-0.5-3.5-0.1-5.2c0.3-1.7,0.8-3.3,1.5-4.9c0.1-0.2,0.1-0.4,0.2-0.6l3,3.3
	c0.1,0.1,0.1,0.3,0.2,0.4c0.1,0.8,0.3,1.7,0.4,2.6l-0.5,1.7c-0.2-0.1-0.5-0.2-0.7-0.3c-0.2-0.1-0.4,0-0.4,0.3c0,0.5,0.2,1,0.2,1.5
	c-0.2,0-0.4,0.1-0.6,0.2c-0.9,0.6-1.9,1-2.9,1.1L250.6,130.9z"/>
<path class="st0" d="M260,127.4c0.3,0.1,0.7,0.2,1,0.4c0.9,0.4,1.8,0.6,2.7,0.7c0.3,0,0.5,0,0.7,0.2c0.6,1.7,1,3.5,1.1,5.3
	c-1.8-0.2-3.4-0.9-4.9-1.8c-0.6-0.3-1.1-0.6-1.5-1.1c0.6-1,0.8-2.1,0.6-3.2L260,127.4z"/>
<path class="st0" d="M270.9,122.4c-0.1-0.4,0-0.8,0.1-1.2c0.3,0,0.5-0.2,0.5-0.5c0.1-0.6,0.2-1.2,0.4-1.8c0.5-2.6,2-4.9,4.1-6.5
	c0.1-0.1,0.3-0.2,0.4,0c0.1,0.1,0.2,0.2,0.2,0.4c-0.1,0.6-0.2,1.1-0.3,1.7c0,1.2-0.3,2.5-0.9,3.6c-0.3,0.5-0.3,1.1,0,1.6
	c0,0-0.1,0.1-0.1,0.1c-0.2-0.2-0.4-0.5-0.7-0.1c-0.4,0-0.8,0.2-1.1,0.6c-0.5,0.7-1,1.3-1.7,1.8C271.6,122.3,271.3,122.4,270.9,122.4
	z"/>
<path class="st0" d="M265.6,133.9c-0.1-1.8-0.5-3.6-1.1-5.3c1.2-0.2,2.5-0.6,3.6-1.1c-0.1,0.4,0.1,0.8,0.4,1.1l1.2,1.3
	c-0.2,0.7-0.5,1.5-0.7,2.2c-0.2,0.4-0.3,0.9-0.2,1.3c-0.2,0.2-0.4,0.3-0.7,0.2c0-0.1,0-0.2-0.1-0.3c-0.2-0.4-0.5-0.8-0.9-0.7
	c-0.4,0.1,0,0.7,0,1c0,0.1,0,0.2,0,0.3C266.7,134,266.1,134,265.6,133.9z"/>
<path class="st0" d="M269.7,129.9l-1.2-1.3c-0.3-0.3-0.5-0.7-0.4-1.1c0.1-0.1,0.1-0.3,0.2-0.4c0.8-0.8,1.5-1.8,2-2.8l1.6,1.3
	c0.3,0.9,0.7,1.7,1.2,2.4c-0.2,1.2-0.7,2.3-1.5,3.1c-0.4-0.2-0.7-0.4-1-0.7C270.4,130.2,270.1,130,269.7,129.9z"/>
<path class="st0" d="M250.6,130.9l0.3,0.1c0.6,1.5,2.1,2.5,3.7,2.4h1.1l0.1,0.3c-2.4,0.9-5,0.9-7.4,0c-0.1-0.5-0.3-1-0.6-1.4
	c-0.2-0.4-0.4-0.8-0.4-1.3L250.6,130.9z"/>
<path class="st0" d="M271.9,125.6l-1.6-1.3l0.6-1.9c0.4,0,0.7-0.1,1-0.4c0.6-0.5,1.2-1.1,1.7-1.8c0.2-0.4,0.6-0.6,1.1-0.6
	c0,1-0.2,1.9-0.5,2.9c-0.4,0-0.6,0.3-0.8,0.6C272.9,123.9,272.5,124.8,271.9,125.6z"/>
<path class="st0" d="M255.7,133.4h-1.1c-1.6,0-3.1-0.9-3.7-2.4c1-0.1,2-0.5,2.9-1.1c0.2-0.1,0.4-0.2,0.6-0.2
	C254.9,130.9,255.3,132.1,255.7,133.4z"/>
<path class="st0" d="M259.8,127.8c0.2,1.1-0.1,2.3-0.6,3.2c-1.4-0.8-2.7-1.8-3.9-2.8c0.2-0.5,0.3-1.1,0.5-1.7
	c0.2,0.1,0.5,0.2,0.7,0.4c0.7,0.7,1.7,1.1,2.7,0.9H259.8z"/>
<path class="st0" d="M271.9,125.6c0.6-0.8,1.1-1.6,1.4-2.5c0.2-0.3,0.3-0.6,0.8-0.6c0,1.9-0.3,3.8-1,5.6
	C272.6,127.3,272.2,126.5,271.9,125.6z"/>
<path class="st0" d="M269.7,129.9c0.3,0.1,0.7,0.3,0.9,0.5c0.3,0.3,0.6,0.6,1,0.7c-0.5,1.1-1.6,2-2.8,2.2c0-0.4,0.1-0.9,0.2-1.3
	C269.3,131.4,269.5,130.6,269.7,129.9z"/>
<path class="st0" d="M267.1,133.9c0-0.1,0-0.2,0-0.3c0.1-0.4-0.5-0.8,0-1c0.5-0.2,0.7,0.4,0.9,0.7c0,0.1,0.1,0.2,0.1,0.3
	C267.8,133.8,267.4,133.9,267.1,133.9z"/>
<path class="st0" d="M259.6,116.8c0-0.4-0.1-0.8-0.4-1.1c-0.3-0.3-0.6-0.6-0.9-1c0.5-1,0.8-2,1-3.1l1.9-0.5c0,0.9,0.1,1.8,0.3,2.6
	c0.2,0.8,0.3,1.5,0.4,2.3C261.2,116.5,260.4,116.7,259.6,116.8z"/>
<path class="st0" d="M261.8,116c-0.1-0.8-0.2-1.5-0.4-2.3c-0.2-0.9-0.3-1.7-0.3-2.6l1.9-1.3c0.1,0.2,0.2,0.5,0.3,0.7
	c0.1,1.2,0.4,2.4,1,3.5c0,0.2,0,0.4,0,0.6C263.6,115.3,262.7,115.8,261.8,116z"/>
<path class="st0" d="M259.2,111.7c-0.2,1.1-0.5,2.1-1,3.1l-2.8-2.6c-0.2-0.2-0.3-0.4-0.3-0.7C256.4,111.6,257.8,111.7,259.2,111.7z"
	/>
<path class="st0" d="M275.4,119.6c-0.3-0.5-0.3-1.1,0-1.6c0.6-1.1,0.9-2.3,0.9-3.6c0-0.6,0.1-1.1,0.3-1.7c0-0.1-0.1-0.3-0.2-0.4
	c-0.1-0.1-0.3,0-0.4,0c-2.1,1.6-3.5,3.9-4.1,6.5c-0.1,0.6-0.2,1.2-0.4,1.8c0,0.3-0.3,0.5-0.5,0.5c0-1.4,0-2.9,0.1-4.3
	c0.4-0.1,0.5-0.4,0.6-0.8c0.1-0.1,0-0.3-0.1-0.4c0,0-0.1,0-0.1,0c-0.2,0-0.4,0-0.6,0l-0.1-0.9c1.2-0.9,2.3-1.9,3.2-3.1
	c0.4-0.6,0.9-1.1,1.4-1.6c0.3,0.2,0.5,0.7,1,0.8c0-0.4,0-0.9-0.1-1.3c0-0.4-0.1-0.8-0.2-1.2c-0.1-0.4-0.2-0.9-0.3-1.3l-0.4-2.1
	c0.6-0.1,0.9-0.6,1.3-1c0.3-0.3,0.6-0.5,1.1-0.6c1.3,2.4,2.5,4.9,3.8,7.3c0.1,0.1,0.1,0.3,0.1,0.5c-0.4,0.3-0.7,0.7-0.7,1.1
	c-0.3,1.2-0.8,2.4-1,3.7c0,0.5-0.2,1-0.6,1.4c-0.4-0.2-0.4-0.7-1-0.8c-0.2,1.2-0.3,2.4-0.3,3.6c-0.2,0-0.4,0-0.5-0.3
	c-0.1-0.3-0.3-0.8-0.4-1.1s-0.4-0.5-0.7-0.2C276.3,118.8,275.8,119.1,275.4,119.6z"/>
<path class="st0" d="M250,113.1c0.3-0.1,0.6,0,0.9,0.1c2.2,1,4.5,1.9,6.8,2.6c0.5,0.1,0.8,0.4,0.8,0.9c-0.9,0.1-1.9,0-2.8-0.3
	C253.7,115.7,251.7,114.5,250,113.1z"/>
<path class="st0" d="M259.8,127.8h-0.6c-1,0.1-2-0.2-2.7-0.9c-0.2-0.1-0.4-0.3-0.7-0.4c-0.1-0.8-0.3-1.7-0.4-2.6
	c0.1,0,0.2,0.1,0.3,0.1c1.4,1.2,2.8,2.3,4.3,3.3L259.8,127.8z"/>
<path class="st0" d="M271,115.6c0.2,0,0.4,0,0.6,0c0.2,0,0.3,0.2,0.2,0.3c0,0,0,0.1,0,0.1c-0.1,0.3-0.2,0.7-0.6,0.8
	C271,116.4,270.9,116,271,115.6z"/>
<path class="st0" d="M249.7,112.8c0.2,0,0.3,0.1,0.3,0.3C249.8,113.1,249.5,113.1,249.7,112.8z"/>
<path class="st0" d="M51.3,112.8c-0.8,0-1.3,0.1-1.8-0.3c-0.6-0.4-1-1-1.3-1.7c-0.1-0.1-0.1-0.3-0.1-0.4c0-1.6,1.1-2.9,2.6-3.2
	c0.1,0,0.3,0,0.5,0c1.2-0.2,2.4,0.4,3,1.6c0.4,0.7,0.4,1.6,0,2.4C53.7,112.2,52.5,112.9,51.3,112.8z M52.5,110
	c0-0.7-0.6-1.3-1.3-1.3c-0.7,0-1.2,0.6-1.2,1.3c0,0.7,0.6,1.2,1.3,1.2C51.9,111.1,52.4,110.6,52.5,110z"/>
<path class="st0" d="M100.7,259.2c0.1,0.6-0.1,1.2-0.5,1.6c-0.5,0.6-1.3,1.1-2.1,1.2c-0.9,0.2-1.9-0.2-2.5-0.9
	c-0.4-0.4-0.6-1-0.4-1.6c0.2-1,0.6-1.9,1.8-2.1c0.3,0,0.5-0.1,0.7-0.2c0.6-0.3,1.4-0.3,1.9,0.1C100.6,257.8,100.7,257.9,100.7,259.2
	z M99.1,260c0.3,0,0.5,0,0.6-0.4c0.3-0.7,0-1.4-0.7-1.7c-0.2-0.1-0.4-0.1-0.6-0.1c-0.7-0.1-1.4,0.2-1.8,0.8c-0.4,0.5-0.4,1.3,0,1.8
	c0.5,0.6,1.4,0.7,2.1,0.3c0.1-0.1,0.1-0.3,0.1-0.4L99.1,260z"/>
<path class="st0" d="M193,40.1c-0.1-1.8,1.4-3.4,3.2-3.4c0.1,0,0.1,0,0.2,0c1.6,0,3,1.1,3.5,2.6c0.1,0.4,0.1,0.9-0.1,1.3
	c-0.4,1.5-1.8,2.6-3.4,2.6c-0.9,0-1.8-0.3-2.4-1C193.3,41.7,193,40.9,193,40.1z M196.5,37.9c-1.4,0-2.2,0.7-2.2,1.8
	c0.1,1.1,0.9,2,2,2.2c1.3,0,2.3-0.9,2.4-2.2c0-1.1-0.9-1.9-2-1.9C196.6,37.9,196.5,37.9,196.5,37.9L196.5,37.9z"/>
<path class="st0" d="M56.2,228.2c0.4,0,0.9,0.1,1.3,0.2c1.7,0.6,3.1,1.9,3.7,3.6c0.1,0.3,0.1,0.6,0.1,0.9c0,0.5-0.4,1-0.9,1.1
	c-1,0.3-2.1,0.1-3.1-0.4c-1.2-0.6-2.2-1.6-2.8-2.9c-0.1-0.2-0.2-0.5-0.2-0.7C54.3,228.8,54.8,228.2,56.2,228.2z M55.7,230.2
	c-0.1,0.4,0,0.7,0.2,1c0.5,0.7,1.1,1.2,1.8,1.7c0.5,0.2,1.1,0.3,1.7,0.2c0.4-0.1,0.7-0.4,0.7-0.8c0.1-0.4,0-0.7-0.1-1.1
	c-0.6-1.2-1.7-2-3.1-2.2C56.1,229.1,55.7,229.5,55.7,230.2L55.7,230.2z"/>
<path class="st0" d="M211,249.4c-0.1-1,0.6-2,1.6-2.3c1-0.4,2.1-0.2,3,0.4c0.9,0.7,1,2,0.3,2.9c0,0,0,0,0,0.1
	c-0.2,0.3-0.5,0.5-0.8,0.8c-0.9,0.9-2.4,0.9-3.4,0c-0.2-0.2-0.4-0.5-0.5-0.8C211,250.1,211,249.7,211,249.4z M213.5,251
	c0.8,0.1,1.5-0.5,1.6-1.3c0-0.1,0-0.1,0-0.2c-0.1-0.9-0.8-1.5-1.6-1.6c-0.9,0-1.7,0.7-1.8,1.7C211.7,250.2,212.6,251,213.5,251z"/>
<path class="st0" d="M198.6,286.2c0.1-0.1,0.2-0.1,0.3,0c0,0,0,0,0,0C198.9,286.5,198.7,286.4,198.6,286.2z"/>
<path class="st0" d="M222.7,64.2c-0.1,1.4-1.3,2.5-2.7,2.4c-0.2,0-0.3,0-0.5-0.1c-1.1-0.5-1.7-1.6-1.5-2.8c0.5-0.9,1.3-1.5,2.2-1.8
	C221.3,62,223,62.8,222.7,64.2z M220.6,62.9c-0.9,0-1.7,0.6-1.9,1.5c0.1,0.9,1,1.6,1.9,1.5c0.8-0.1,1.5-0.8,1.5-1.6
	C222.1,63.4,221.5,62.9,220.6,62.9L220.6,62.9z"/>
<path class="st0" d="M18.1,140.2c0.1,0.5-0.1,1-0.5,1.3c-0.2,0.2-0.6,0.2-0.8,0c-0.4-0.4-0.7-0.9-0.8-1.5c0-0.1,0-0.3,0-0.4
	c0.1-0.5,0.4-0.9,0.9-1c0.5,0,0.9,0.4,1,0.8C18.1,139.7,18.1,139.9,18.1,140.2z M17.2,140.7c0.1,0,0.2-0.1,0.2-0.1
	c0.1-0.3,0.1-0.6,0-0.8c-0.1-0.2-0.2-0.3-0.4-0.3c-0.2,0-0.3,0.2-0.4,0.4c-0.1,0.3,0,0.6,0.3,0.8C17,140.7,17.1,140.7,17.2,140.7
	L17.2,140.7z"/>
<path class="st0" d="M114.9,222.3c0.2,0,0.4,0.3,0.4,0.5c0,0,0,0.1,0,0.1C115,222.8,114.9,222.6,114.9,222.3
	C114.9,222.3,114.9,222.3,114.9,222.3z"/>
<path class="st0" d="M114.3,221.7c0.2,0,0.3,0.2,0.3,0.3C114.4,222,114.3,221.8,114.3,221.7z"/>
<path class="st0" d="M114.6,222c0.2,0,0.3,0.2,0.3,0.3C114.8,222.3,114.6,222.1,114.6,222C114.6,222,114.6,222,114.6,222z"/>
<path class="st0" d="M277.9,103.1c-0.4,0.1-0.8,0.3-1.1,0.6c-0.4,0.4-0.7,0.9-1.3,1c-0.6-1.7-1-3.5-1.3-5.3h2.1L277.9,103.1z"/>
<path class="st0" d="M276.2,99.3h-2.1c-0.5-1.3-0.8-2.7-1-4.1l1.8,0.3C275.4,96.8,275.9,98,276.2,99.3z"/>
<path class="st0" d="M137.8,286.9c-0.2-0.1-0.6,0-0.7-0.4C137.4,286.6,137.7,286.6,137.8,286.9z"/>
<path class="st0" d="M141.3,288.4c-0.1,0-0.2,0-0.3-0.1C141.1,288.2,141.2,288.3,141.3,288.4z"/>
<path class="st0" d="M271,97.2c0,0.5,0,0.7-0.4,0.9c-0.2,0.1-0.4,0.1-0.6-0.1c-1.1-0.8-1.7-2-1.6-3.4c0-0.3,0.3-0.5,0.5-0.5
	c0.1,0,0.2,0,0.3,0.1c0,0,0.1,0,0.1,0.1C270.1,95.1,270.7,96.1,271,97.2z"/>
<path class="st0" d="M170.1,282.6c0,0.9-0.7,1.7-1.6,1.8c-0.7,0-1.3-0.6-1.3-1.3c0-0.1,0-0.1,0-0.2c0-1,0.5-1.6,1.4-1.6
	c0.7-0.1,1.4,0.4,1.5,1.1C170.1,282.4,170.1,282.5,170.1,282.6z M169.4,282.6c0-0.4-0.3-0.7-0.7-0.7c-0.4,0-0.8,0.3-0.9,0.8
	c0,0,0,0.1,0,0.1c0,0.4,0.2,0.7,0.6,0.8C169,283.6,169.5,283.2,169.4,282.6L169.4,282.6z"/>
<path class="st0" d="M251,207.2c0.1-1.1,1-2,2.1-2c1.1-0.1,2,0.8,2,1.8c0,0,0,0.1,0,0.1c-0.1,1.1-0.9,2-2,2.1
	c-1.1,0.1-2-0.7-2.1-1.7C251,207.3,251,207.3,251,207.2z"/>
<path class="st0" d="M108.9,7c0,0.2-0.1,0.4-0.3,0.5c-0.2,0.1-0.5,0.1-0.8,0c-0.4-0.1-0.6-0.6-0.4-1c0,0,0,0,0-0.1
	c0.2-0.5,0.6-1,1-1.3c0.3-0.3,0.8-0.4,1.2-0.3c0.3,0,0.5,0.2,0.5,0.5c0.1,0.5,0,0.7-0.6,1.1c0-0.1,0-0.3,0-0.4
	c-0.1-0.4-0.4-0.5-0.7-0.3c-0.2,0.1-0.3,0.3-0.4,0.4c-0.1,0.2-0.2,0.4-0.1,0.6C108.4,6.9,108.7,7,108.9,7z"/>
<path class="st0" d="M108.9,7c-0.2-0.1-0.5-0.1-0.6-0.4c-0.1-0.2,0-0.4,0.1-0.6c0.1-0.2,0.3-0.3,0.4-0.4c0.3-0.2,0.5-0.1,0.7,0.3
	c0,0.1,0,0.3,0,0.4L108.9,7z"/>
<path class="st0" d="M78.8,43.9c0.1,0.8-0.1,1.7-0.5,2.4c-0.7,1-1.7,1.7-2.8,2.1c-2.7,0.7-5.5-1-6.2-3.7C69,44,69,43.2,69.1,42.5
	c0.6-2.3,2-3.4,4.5-3.6c1.3-0.2,2.7,0.3,3.5,1.3c0.6,0.7,1.4,1.3,1.6,2.3C78.8,42.9,78.8,43.4,78.8,43.9z M77.5,43.8
	c-0.1-2-1.7-3.6-3.7-3.7c-1.6,0-3.7,1.8-3.6,3.3c0,2.1,1.7,3.8,3.7,3.9c1.9,0.1,3.5-1.4,3.6-3.4C77.5,43.9,77.5,43.9,77.5,43.8
	L77.5,43.8z"/>
<path class="st0" d="M88.9,7.8c0.3,2.2-1.1,3.7-2.7,4.7c-1.6,1-3.6,1.1-5.2,0.2c-1.1-0.6-2-1.6-2.6-2.8c-0.3-1.4-0.2-2.8,0.1-4.2
	c0.9-2.1,2.9-3.4,5.1-3.5c1.3,0,2.5,0.5,3.4,1.4c0.1,0.1,0.2,0.2,0.3,0.3C88.5,4.9,89.1,6.3,88.9,7.8z M87.7,7.8c0-0.5,0-1-0.2-1.4
	C87,5,85.9,4,84.5,3.7c-1.4-0.5-3,0-3.9,1.2c-0.1,0.1-0.1,0.2-0.2,0.2c-1.1,1.1-1.4,2.6-1,4c0.2,0.8,0.8,1.2,1.3,1.7
	c0.7,0.8,1.7,1.2,2.8,1.1c1.1,0,2.2-0.4,3-1.2C87.4,10.1,87.8,9,87.7,7.8L87.7,7.8z"/>
<path class="st0" d="M19,62.5c-1.1,0.3-1.8-0.5-2.5-1.3c-0.3-0.4-0.5-0.8-0.6-1.3c-0.2-0.5-0.2-1,0-1.5c0.6-1.3,1.7-2.2,3.1-2.4
	c1.3-0.1,2.5,0.5,3.1,1.6c1,1.2,0.8,2.9-0.3,3.9c0,0,0,0,0,0c-0.1,0.1-0.3,0.3-0.4,0.4c-0.4,0.5-1,0.7-1.5,0.6
	C19.5,62.5,19.3,62.5,19,62.5z M21.1,59.3c0.1-1.1-0.7-2-1.8-2c0,0-0.1,0-0.1,0c-1.1,0-2,0.8-2,1.9c0,1.1,0.8,2,1.9,2
	C20.1,61.2,21,60.4,21.1,59.3L21.1,59.3z"/>
<path class="st0" d="M29,52.3c-1.9,0-2.6-0.7-2.6-2.5c-0.1-0.5,0-1,0.4-1.5c0.5-0.6,1.1-1.1,1.9-1.3c0.7-0.2,1.5,0,2,0.6
	c0.1,0.2,0.3,0.3,0.4,0.4c0.7,0.7,0.9,1.8,0.4,2.6c-0.3,0.5-0.8,1-1.3,1.3C29.9,52.4,29.4,52.2,29,52.3z M30.6,49.7
	c0-0.2,0-0.3,0-0.5c0-0.5-0.4-0.9-0.9-0.9c-0.8-0.2-1.6,0.2-2,0.9c-0.4,0.6-0.3,1.5,0.4,2c0.2,0.1,0.4,0.2,0.7,0.2
	C30.1,51.4,30.7,50.6,30.6,49.7z"/>
<path class="st0" d="M73.3,89.6c-0.2-0.1-0.4-0.2-0.4-0.4c0.2-1,0.9-1.8,1.8-2.2c0.1,0,0.3,0,0.4,0.1c0.1,0.1,0.1,0.3,0.1,0.4
	c-0.3,0.9-0.9,1.6-1.6,2C73.5,89.6,73.4,89.5,73.3,89.6z"/>
<path class="st0" d="M154.3,28.6c-0.1-1.6,1-3,2.6-3.1c0.4,0,0.7,0,1.1,0.2c1.7,0.4,2.7,2.1,2.2,3.8c-0.2,0.6-0.5,1.1-0.9,1.5
	c-0.4,0.3-0.8,0.6-1.3,0.8c-0.7,0.3-1.6,0.2-2.2-0.4C154.8,30.8,154.2,29.7,154.3,28.6z M155.2,28.4c0,0.2,0,0.4,0,0.5
	c0.1,0.9,0.8,1.7,1.8,2c0.8,0,1.5-0.4,2-1c0.7-0.9,0.5-2.3-0.4-3c-0.2-0.1-0.3-0.2-0.5-0.3c-0.9-0.6-2-0.3-2.5,0.5
	c0,0,0,0.1-0.1,0.1C155.2,27.6,155.2,28,155.2,28.4z"/>
<path class="st0" d="M27.1,180c0.1,1-0.6,1.8-1.5,2c-0.7,0.1-1.4-0.3-1.7-0.9c-0.3-0.6-0.3-1.3,0-1.9c0.3-0.5,0.7-0.8,1.2-0.9
	C26.6,178.1,27.2,178.9,27.1,180z M25.5,179.3c-0.5,0-0.9,0.5-0.8,1c0,0.4,0.3,0.7,0.7,0.8c0.5,0,1-0.5,1-1
	C26.3,179.6,25.9,179.3,25.5,179.3L25.5,179.3z"/>
<path class="st0" d="M52.5,110c0,0.7-0.6,1.3-1.3,1.3c-0.7,0-1.3-0.6-1.3-1.3c0-0.7,0.6-1.3,1.3-1.3C51.9,108.7,52.5,109.3,52.5,110
	z"/>
<path class="st0" d="M98.8,260.3c0,0.2,0,0.4-0.1,0.4c-0.7,0.4-1.6,0.3-2.1-0.3c-0.4-0.5-0.4-1.3,0-1.8c0.4-0.6,1.1-0.9,1.8-0.8
	c0.7-0.1,1.3,0.5,1.4,1.2c0,0.2,0,0.4-0.1,0.6c-0.1,0.3-0.3,0.4-0.6,0.4c0-0.3,0-0.5,0-0.8c-0.1-0.5-0.5-0.8-1-0.8
	c-0.1,0-0.2,0-0.3,0.1c-0.2,0.1-0.4,0.3-0.6,0.5c-0.3,0.3-0.3,0.7,0,1c0.1,0.1,0.2,0.2,0.4,0.2C97.9,260.3,98.3,260.3,98.8,260.3z"
	/>
<path class="st0" d="M98.8,260.3c-0.4,0-0.9,0-1.3,0c-0.4-0.1-0.6-0.4-0.6-0.8c0-0.1,0.1-0.3,0.2-0.4c0.2-0.2,0.4-0.4,0.6-0.5
	c0.4-0.2,1-0.1,1.2,0.4c0.1,0.1,0.1,0.2,0.1,0.3c0,0.3,0,0.5,0,0.8L98.8,260.3z"/>
<path class="st0" d="M196.4,37.9c1.1-0.1,2,0.6,2.2,1.7c0,0.1,0,0.1,0,0.2c-0.1,1.2-1.2,2.2-2.4,2.2c-1.1-0.2-1.9-1.1-2-2.2
	C194.2,38.6,195,37.9,196.4,37.9z M196.2,41c0.7,0.1,1.4-0.4,1.5-1.1c0-0.1,0-0.1,0-0.2c-0.1-0.6-0.6-1.2-1.2-1.2
	c-0.7,0-1.3,0.6-1.3,1.3c0,0,0,0.1,0,0.1c-0.1,0.5,0.3,1,0.9,1.1C196.1,41,196.2,41,196.2,41z"/>
<path class="st0" d="M55.7,230.2c0-0.8,0.4-1.2,1.2-1.1c1.3,0.2,2.5,1,3.1,2.2c0.2,0.3,0.2,0.7,0.1,1.1c0,0.4-0.3,0.7-0.7,0.8
	c-0.6,0.1-1.2,0-1.7-0.2c-0.7-0.4-1.3-1-1.8-1.7C55.7,231,55.6,230.6,55.7,230.2z M58.2,232.3c0.3,0,0.6-0.2,0.6-0.5c0,0,0,0,0,0
	c-0.1-0.8-0.7-1.4-1.4-1.6c-0.4,0-0.7,0.3-0.7,0.7c0,0,0,0,0,0.1C56.9,231.7,57.5,232.2,58.2,232.3z"/>
<path class="st0" d="M213.5,251c-0.8,0-1.8-0.8-1.8-1.4c0.1-0.9,0.8-1.6,1.8-1.7c0.9,0.1,1.6,0.7,1.6,1.6c0,0.8-0.6,1.5-1.4,1.5
	C213.6,251,213.5,251,213.5,251z"/>
<path class="st0" d="M220.6,62.9c1,0,1.5,0.5,1.5,1.3c0,1-0.8,1.7-1.8,1.7c-0.8,0-1.5-0.7-1.6-1.5C218.9,63.4,219.7,62.8,220.6,62.9
	z M221.2,64.4c0-0.4-0.3-0.8-0.7-0.9c-0.4,0-0.8,0.3-0.9,0.7c0,0,0,0.1,0,0.1c0,0.4,0.2,0.6,0.7,0.7
	C220.8,65.1,221.2,64.9,221.2,64.4z"/>
<path class="st0" d="M17.2,140.7c-0.1,0-0.2,0-0.3-0.1c-0.2-0.2-0.3-0.5-0.3-0.8c0-0.2,0.2-0.4,0.4-0.4c0.2,0,0.4,0.1,0.4,0.3
	c0.1,0.3,0.1,0.6,0,0.8C17.4,140.7,17.3,140.7,17.2,140.7z"/>
<path class="st0" d="M169.5,282.6c0,0.5-0.5,1-1,1c-0.4-0.1-0.6-0.5-0.6-0.8c0-0.4,0.3-0.8,0.7-0.9c0,0,0.1,0,0.1,0
	C169.2,282,169.5,282.3,169.5,282.6z"/>
<path class="st0" d="M77.5,43.8c0,1.9-1.6,3.4-3.5,3.4c0,0,0,0,0,0c-2.1-0.1-3.8-1.8-3.7-3.9c-0.1-1.5,2-3.3,3.6-3.3
	C75.9,40.2,77.5,41.8,77.5,43.8z M76.2,43.7c0-0.4,0-0.8-0.2-1.2c-0.5-0.9-1.6-1.4-2.6-1.3c-0.9,0.2-1.6,0.9-1.9,1.7
	c-0.2,0.9,0,1.8,0.7,2.4c0.8,0.7,1.8,0.9,2.8,0.5C76,45.4,76.3,45,76.2,43.7L76.2,43.7z"/>
<path class="st0" d="M87.7,7.8c0.1,1.2-0.4,2.3-1.3,3c-0.8,0.8-1.9,1.2-3,1.2c-1,0.1-2.1-0.4-2.8-1.1c-0.5-0.5-1.1-1-1.3-1.7
	c-0.5-1.4-0.2-3.1,0.9-4.2c0.1-0.1,0.2-0.1,0.2-0.2c0.9-1.2,2.5-1.7,3.9-1.2c1.4,0.3,2.6,1.3,3.1,2.6C87.7,6.7,87.7,7.3,87.7,7.8z
	 M80.4,7.7c-0.2,1.6,1,3.1,2.6,3.3c0.1,0,0.3,0,0.4,0c1.8-0.1,3.2-1.6,3.1-3.3c-0.1-1.6-1.3-3-3-3.1c-0.9,0-1.8,0.4-2.4,1
	C80.5,6.1,80.3,6.9,80.4,7.7z"/>
<path class="st0" d="M21.1,59.4c-0.1,1-1.1,1.8-2.1,1.6c-1-0.1-1.8-1.1-1.6-2.1c0.1-0.9,0.9-1.6,1.8-1.6c1.1,0,1.9,0.9,1.9,1.9
	C21.1,59.3,21.1,59.3,21.1,59.4z"/>
<path class="st0" d="M30.6,49.7c0.1,0.9-0.5,1.8-1.9,1.6c-0.8-0.1-1.3-0.8-1.3-1.5c0-0.2,0.1-0.5,0.2-0.7c0.4-0.7,1.2-1.1,2-0.9
	c0.5,0,0.9,0.4,0.9,0.9C30.6,49.3,30.6,49.5,30.6,49.7z"/>
<path class="st0" d="M155.2,28.4c0-0.4,0-0.8,0.2-1.1c0.5-0.9,1.6-1.2,2.5-0.7c0,0,0.1,0,0.1,0.1c1.1,0.4,1.6,1.7,1.2,2.8
	c-0.1,0.2-0.2,0.4-0.3,0.5c-0.4,0.7-1.2,1-2,1c-0.9-0.3-1.6-1-1.8-2C155.2,28.8,155.2,28.6,155.2,28.4z M158.4,28.8
	c-0.1-0.6-0.6-1.1-1.2-1.2c-0.5-0.1-1,0.3-1,0.8c0,0,0,0.1,0,0.1c0,0.6,0.4,1.2,1.1,1.3C157.8,29.7,158.2,29.3,158.4,28.8z"/>
<path class="st0" d="M25.5,179.3c0.4,0,0.8,0.3,0.9,0.8c0,0.5-0.5,1-1,1c-0.5-0.1-0.8-0.6-0.7-1.1C24.8,179.6,25.1,179.3,25.5,179.3
	z"/>
<path class="st0" d="M196.2,41c-0.5,0.1-1-0.3-1.1-0.9c0-0.1,0-0.1,0-0.2c-0.1-0.7,0.5-1.4,1.2-1.4c0,0,0.1,0,0.1,0
	c0.6,0,1.2,0.5,1.2,1.2c0,0.7-0.6,1.3-1.3,1.3C196.3,41,196.3,41,196.2,41z"/>
<path class="st0" d="M58.2,232.3c-0.7-0.1-1.3-0.6-1.6-1.3c0-0.4,0.3-0.8,0.7-0.8c0,0,0,0,0.1,0c0.8,0.2,1.4,0.8,1.4,1.6
	C58.8,232.1,58.5,232.3,58.2,232.3C58.2,232.3,58.2,232.3,58.2,232.3z"/>
<path class="st0" d="M221.2,64.4c0,0.4-0.3,0.7-0.9,0.6c-0.5,0-0.7-0.3-0.7-0.7c0-0.4,0.3-0.8,0.7-0.8c0,0,0.1,0,0.1,0
	C220.9,63.6,221.2,64,221.2,64.4z"/>
<path class="st0" d="M76.3,43.7c0,1.2-0.3,1.7-1.3,2.1c-0.9,0.4-2,0.2-2.8-0.5c-0.7-0.6-0.9-1.5-0.7-2.4c0.3-0.8,1-1.4,1.9-1.7
	c1.1-0.1,2.1,0.4,2.6,1.3C76.2,43,76.3,43.4,76.3,43.7z M73.8,42.3c-0.8,0.1-1.4,0.7-1.3,1.5c0.1,0.8,0.7,1.4,1.5,1.3
	c0.7,0,1.3-0.7,1.3-1.4c0.1-0.7-0.4-1.4-1.2-1.4C74,42.2,73.9,42.2,73.8,42.3z"/>
<path class="st0" d="M80.4,7.7c-0.1-0.8,0.2-1.6,0.8-2.2c0.7-0.6,1.5-0.9,2.4-1c1.8,0.1,3.1,1.7,2.9,3.5c-0.1,1.6-1.5,2.9-3.1,3
	c-1.6,0.1-3-1.2-3.1-2.9C80.4,8,80.4,7.8,80.4,7.7z M83.3,5.8c-1.1,0-2,0.9-2,2c0,1.1,0.9,2,2,2c1.1,0,2-0.9,2-2S84.4,5.8,83.3,5.8
	C83.3,5.8,83.3,5.8,83.3,5.8z"/>
<path class="st0" d="M158.4,28.8c-0.1,0.6-0.6,1-1.2,1c-0.6-0.1-1.1-0.7-1.1-1.3c0-0.5,0.4-0.9,0.9-0.9c0,0,0.1,0,0.1,0
	C157.8,27.6,158.3,28.1,158.4,28.8z"/>
<path class="st0" d="M73.8,42.3c0.7-0.1,1.4,0.4,1.5,1.1c0,0.1,0,0.2,0,0.3c0,0.8-0.6,1.4-1.4,1.4c-0.8,0-1.4-0.6-1.4-1.4
	C72.4,42.9,73,42.3,73.8,42.3z"/>
<path class="st0" d="M83.3,5.8c1.1,0,2,0.9,2.1,2c0,1.1-0.9,2-2,2.1c-1.1,0-2-0.9-2.1-2c0,0,0,0,0,0c-0.1-1,0.6-1.9,1.6-2
	C83,5.7,83.2,5.7,83.3,5.8z"/>
</svg>
